<svg width="32" height="32" fill="none" xmlns="http://www.w3.org/2000/svg"><path fill-rule="evenodd" clip-rule="evenodd" d="m23.016 13.41-6.414 11.71c2.534 4.49 4.603 6.067 8.666 5.907 3.98-.158 8.561-5.57 5.981-10.203l-6.424-11.39c-.23.766-1.572 3.484-1.81 3.977h.001ZM13.525 27.54c-7.02 8.94-17.147-.927-12.222-8.608 0 0 5.244-9.19 7.283-12.77 1.58-2.775 3.352-4.522 5.656-5.082 2.808-.683 6.098.802 7.851 3.51 1.219 1.882 2.297 3.605.396 6.859-.225.386-8.52 15.525-8.964 16.091Zm.5-16.537c-1.918-1.106-1.918-3.886 0-4.992 1.919-1.106 4.33.284 4.33 2.496s-2.411 3.602-4.33 2.496Z" fill="#5FD788"/></svg>