<svg viewBox="0 0 15 17" xmlns="http://www.w3.org/2000/svg"><path d="m14.05 14.692-.556-9.851h-2.773v-.796c0-1.983-1.648-3.597-3.675-3.597-2.026 0-3.675 1.614-3.675 3.597v.796H.478l-.477 9.893v.018c-.005.356.14.705.395.958.256.253.612.398.976.398H12.68c.375 0 .738-.152.996-.42.258-.266.394-.63.373-.996ZM4.33 4.045c0-1.466 1.218-2.659 2.716-2.659 1.498 0 2.717 1.193 2.717 2.66v.795H4.329v-.796Zm8.65 10.999a.42.42 0 0 1-.3.126H1.372a.42.42 0 0 1-.294-.12.402.402 0 0 1-.12-.282l.434-8.99h1.979v1.189c0 .259.214.469.48.469.264 0 .478-.21.478-.47V5.78h5.434v1.188c0 .259.214.469.479.469s.48-.21.48-.47V5.78h1.865l.505 8.965a.4.4 0 0 1-.112.3Z"/></svg>