<svg xmlns="http://www.w3.org/2000/svg" xmlns:xlink="http://www.w3.org/1999/xlink"><defs>
<clipPath id="clip0_106_34625">
<rect width="24" height="24" fill="white"/>
</clipPath>
</defs><symbol id="icon" viewBox="0 0 32 32"><g fill="none">
<path fill-rule="evenodd" clip-rule="evenodd" d="M23.016 13.4108L16.6018 25.1202C19.1364 29.6104 21.2047 31.187 25.2683 31.0266C29.2477 30.8695 33.8292 25.4562 31.2492 20.8239L24.8253 9.43374C24.5956 10.2004 23.2528 12.918 23.0159 13.4109L23.016 13.4108ZM13.5246 27.539C6.50481 36.4797 -3.62232 26.612 1.30312 18.9307C1.30312 18.9307 6.54656 9.74174 8.58568 6.1618C10.1669 3.38567 11.9384 1.63867 14.2417 1.07867C17.0505 0.395799 20.3396 1.8808 22.093 4.58911C23.3116 6.47117 24.39 8.19386 22.4894 11.4477C22.2636 11.8342 13.9691 26.9729 13.5246 27.539V27.539ZM14.0254 11.0019C12.1069 9.89586 12.1069 7.1158 14.0254 6.0098C15.9439 4.9038 18.355 6.2938 18.355 8.5058C18.355 10.7178 15.9439 12.1079 14.0254 11.0019Z" fill="#5FD788"/>
</g></symbol><symbol id="hero_background-inner" viewBox="0 0 157 169"><g fill="none">
<path fill-rule="evenodd" clip-rule="evenodd" d="M48.6581 149.962C21.0471 133.355 -22.0538 52.1851 14.3005 12.8325C37.8539 -12.4833 64.9115 4.1386 74.7388 40.8934C78.6041 50.6525 84.4746 55.2984 92.5334 58.5143C100.592 61.7303 119.053 57.0804 134.752 69.0378C181.994 105.022 152.061 212.156 48.6581 149.962Z" fill="#5FD788"/>
</g></symbol><symbol id="hero_background-top" viewBox="0 0 219 180"><g fill="none">
<path d="M14.1641 160.343C-35.4255 103.73 62.0502 51.8685 91.2244 22.6943C120.399 -6.47994 167.699 -6.47998 196.874 22.6943C226.048 51.8685 226.048 99.1693 196.874 128.344C167.699 157.518 68.784 206.795 14.1641 160.343Z" fill="#5FD788"/>
</g></symbol><symbol id="leaf-1_hero" viewBox="0 0 259 290">

                <path d="M225.254 281.57C229.472 263.866 232.847 246.163 232.003 228.459C231.16 216.657 228.629 195.581 214.287 193.052C212.599 193.052 210.912 193.895 210.912 195.581C210.912 210.756 211.756 225.087 213.443 240.262C214.287 247.006 215.13 253.75 215.974 260.494C216.818 264.709 217.661 268.081 218.505 271.453C219.348 274.826 219.348 278.198 221.036 280.727C221.036 281.57 221.879 281.57 222.723 280.727C223.567 277.355 222.723 273.982 221.879 270.61C221.879 267.238 221.036 263.866 221.036 260.494C220.192 252.907 219.348 245.32 218.505 238.576C216.818 224.244 216.818 209.07 216.818 194.738C215.974 195.581 214.287 196.424 213.443 197.267C220.192 198.953 222.723 204.855 224.41 210.756C226.098 218.343 226.941 225.93 227.785 233.517C228.629 248.692 225.254 264.709 223.567 279.884C221.879 283.256 224.41 284.099 225.254 281.57Z"/>
                  <path d="M225.254 282.413C247.189 260.494 259.844 230.988 259 199.796C259 197.267 255.625 195.581 253.938 198.11C248.033 204.855 242.971 212.442 238.752 220.029C236.221 224.244 234.534 228.459 232.847 232.674C231.16 236.046 229.472 239.419 230.316 242.791C230.316 243.634 232.003 244.477 232.847 243.634C235.378 241.105 236.221 236.889 237.909 234.36C239.596 230.145 242.127 226.773 243.814 222.558C248.033 214.971 253.094 208.227 259 202.326C257.313 201.482 255.625 200.639 253.938 200.639C255.625 230.145 244.658 259.651 224.41 281.57C221.879 281.57 224.41 283.256 225.254 282.413Z"/>
                  <path d="M218.505 258.808C215.974 246.163 205.85 238.576 195.726 233.517C183.915 227.616 170.417 221.715 157.762 222.558C155.231 222.558 154.388 225.087 155.231 226.773C161.98 240.262 170.417 252.064 182.228 262.18C187.29 267.238 193.195 271.453 199.945 274.826C205.85 278.198 213.443 282.413 221.036 284.099C223.567 284.099 225.254 281.57 222.723 279.884C216.818 276.512 210.068 273.982 204.163 270.61C198.257 267.238 192.352 263.023 186.446 257.965C175.479 248.692 166.199 236.889 161.137 224.244C160.293 225.93 159.449 226.773 158.606 228.459C170.417 228.459 182.228 234.36 193.195 239.419C203.319 243.634 212.599 250.378 217.661 260.494C216.818 260.494 218.505 259.651 218.505 258.808Z"/>
                  <path d="M192.352 268.924C187.29 266.395 180.541 265.552 175.479 264.709C169.573 263.866 164.511 263.023 158.606 263.023C146.795 262.18 134.984 263.023 123.173 264.709C120.642 264.709 120.642 268.924 122.329 269.767C134.984 275.669 147.638 282.413 161.98 285.785C168.73 287.471 176.322 288.314 183.072 289.157C190.664 290 198.257 291.686 205.85 289.157C208.381 288.314 208.381 284.942 205.85 284.099C199.101 281.57 191.508 282.413 184.759 282.413C178.01 281.57 171.261 281.57 163.668 279.884C150.169 277.355 138.358 271.453 125.704 265.552C124.86 267.238 124.86 268.924 124.016 270.61C134.984 268.924 146.795 268.081 157.762 268.081C163.668 268.081 169.573 268.924 174.635 268.924C179.697 269.767 186.446 271.453 191.508 270.61C193.195 270.61 194.039 268.924 192.352 268.924Z"/>
                  <path d="M176.322 201.482C169.573 191.366 163.668 181.25 162.824 169.448C161.137 157.645 160.293 145 163.668 133.198C162.824 133.198 161.137 133.198 160.293 134.041C167.042 145 170.417 157.645 172.948 169.448C173.791 175.349 174.635 182.093 175.479 188.837C175.479 193.895 173.791 200.639 176.322 205.698C176.322 206.541 178.01 206.541 178.01 205.698C181.384 201.482 180.541 193.052 180.541 187.994C180.541 181.25 179.697 175.349 178.01 168.605C175.479 155.959 170.417 143.314 163.668 132.355C162.824 130.669 161.137 131.512 160.293 133.198C156.075 145.843 156.919 159.331 158.606 171.977C160.293 184.622 166.199 193.895 173.791 204.012C175.479 204.012 177.166 203.169 176.322 201.482Z"/>
                  <path d="M180.541 194.738C181.384 171.134 188.977 148.372 201.632 128.982C199.945 128.982 198.257 128.139 197.414 128.139C199.101 142.471 199.101 158.488 194.883 171.977C193.195 177.878 190.664 183.779 187.29 188.837C183.915 194.738 178.853 198.11 174.635 203.169C172.948 204.855 175.479 208.227 177.166 207.384C182.228 204.012 187.29 198.953 190.664 193.895C194.039 187.994 197.414 182.093 199.101 176.192C204.163 161.017 204.163 145 202.476 128.982C202.476 126.453 199.101 125.61 198.257 128.139C184.759 148.372 178.01 171.977 178.853 196.424C178.01 196.424 180.541 196.424 180.541 194.738Z"/>
                  <path d="M175.479 204.855C168.73 204.855 162.824 203.169 156.919 200.639C151.013 198.11 145.951 193.895 140.889 189.68C131.609 181.25 120.642 172.82 113.892 161.86C113.049 162.703 113.049 163.546 112.205 165.233C129.078 165.233 145.951 170.291 161.137 177.878C161.137 177.878 161.98 177.878 161.137 177.035C157.762 174.506 154.388 171.977 151.013 169.448C147.638 166.919 143.42 165.233 139.202 164.389C130.765 161.86 121.485 161.017 112.205 161.017C110.518 161.017 109.674 162.703 110.518 164.389C118.954 176.192 129.078 186.308 140.046 195.581C150.169 204.012 163.668 213.285 177.166 207.384C177.166 206.541 177.166 204.855 175.479 204.855Z"/>
                  <path d="M177.166 203.169C171.261 207.384 167.042 211.599 160.293 213.285C151.857 215.814 143.42 214.971 134.984 214.128C119.798 211.599 105.456 208.227 91.9576 198.953C91.9576 200.639 91.9576 202.326 91.9576 204.012C98.7068 200.639 106.3 198.11 113.892 196.424C121.485 194.738 129.078 194.738 136.671 194.738C139.202 194.738 140.046 190.523 137.515 190.523C121.485 187.994 104.612 193.052 89.4267 198.953C87.7394 199.796 86.0521 202.326 88.583 204.012C102.081 214.971 119.798 219.186 136.671 220.872C145.107 221.715 154.388 221.715 162.824 218.343C168.73 215.814 176.322 211.599 178.853 204.855C179.697 204.012 178.01 202.326 177.166 203.169Z"/>
                  <path d="M174.635 206.541C177.166 211.599 180.541 217.5 183.915 222.558C185.603 225.087 187.29 227.616 188.977 230.145C189.821 231.831 190.664 232.674 192.352 233.517C193.195 234.36 194.039 236.046 195.726 236.889C196.57 236.889 197.414 236.889 197.414 236.046C197.414 234.36 196.57 233.517 195.726 231.831C194.883 230.145 194.883 229.302 194.039 227.616C192.352 225.087 190.664 222.558 188.977 220.029C185.603 214.971 182.228 209.913 178.01 204.855C176.322 203.169 173.791 204.855 174.635 206.541Z"/>
                  <path d="M160.293 174.506C161.137 172.82 159.449 171.134 158.606 170.291C157.762 168.605 156.919 166.919 155.231 166.076C152.7 162.703 151.013 160.174 148.482 156.802C145.951 154.273 144.264 150.901 141.733 148.372C140.889 146.686 139.202 145 138.358 144.157C137.515 142.471 136.671 140.785 134.14 139.942C132.453 139.942 131.609 140.785 131.609 142.471C131.609 144.157 133.296 145.843 134.14 147.529C134.984 149.215 136.671 150.901 137.515 151.744C140.046 155.116 141.733 157.645 144.264 161.017C146.795 163.546 148.482 166.919 151.013 169.448C151.857 171.134 153.544 171.977 154.388 173.663C155.231 174.506 156.075 177.035 158.606 176.192C159.449 175.349 160.293 175.349 160.293 174.506Z"/>
                  <path d="M140.046 145.843C147.638 133.198 151.013 118.023 151.857 102.849C152.7 89.3604 152.7 73.343 144.264 62.3837C143.42 60.6976 140.889 60.6976 140.046 63.2267C137.515 77.5581 134.984 91.8895 133.296 106.221C132.453 113.808 132.453 120.552 131.609 128.139C131.609 133.198 129.922 141.628 133.296 146.686C133.296 147.529 134.984 147.529 134.984 146.686C138.358 142.471 136.671 134.041 136.671 128.139C136.671 121.395 137.515 114.651 137.515 107.907C138.358 93.5755 140.046 79.2441 143.42 64.9127C141.733 64.9127 140.889 64.9127 139.202 65.7558C146.795 76.7151 146.795 91.8895 145.107 104.535C144.264 118.866 140.046 132.355 135.827 145.843C137.515 145.843 139.202 146.686 140.046 145.843Z"/>
                  <path d="M136.671 140.785C136.671 114.651 127.391 88.5174 112.205 67.4418C111.362 65.7558 107.987 65.7558 107.987 68.2848C108.831 83.4593 109.674 100.32 113.892 114.651C115.58 120.552 118.954 126.453 122.329 131.512C124.016 134.041 125.704 136.57 127.391 138.256C129.922 140.785 131.609 144.157 134.984 145.843C135.827 146.686 138.358 145 137.515 144.157C134.984 138.256 129.922 134.041 126.547 128.983C123.173 123.924 119.798 118.866 118.111 112.965C113.892 98.6337 113.049 82.6162 112.205 68.2848C110.518 68.2848 109.674 69.1279 107.987 69.1279C122.329 91.0465 130.765 114.651 134.14 140.785C134.14 142.471 135.827 141.628 136.671 140.785Z"/>
                  <path d="M134.14 143.314C126.547 144.157 118.954 145.843 111.362 146.686C103.769 147.529 97.0195 145 90.2703 144.157C86.8957 144.157 82.6775 144.157 79.3029 144.157C75.0846 144.157 70.8664 142.471 67.4918 140.785C60.7426 137.413 53.1498 134.041 46.4006 130.669C45.5569 132.355 45.5569 134.041 44.7133 135.727C59.899 134.041 75.9283 133.198 91.114 133.198C98.7068 133.198 106.3 134.041 113.049 135.727C120.642 138.256 126.547 141.628 133.296 145.843C136.671 147.529 139.202 143.314 135.827 141.628C129.922 137.413 123.173 134.041 116.423 131.512C109.674 128.983 101.238 128.139 93.6449 127.296C76.7719 127.296 59.899 128.983 43.8696 129.826C41.3387 129.826 39.6514 133.198 42.1824 134.884C50.6188 139.099 58.2117 143.314 66.6482 146.686C74.241 150.058 80.9902 150.058 89.4267 150.058C97.0195 150.901 103.769 152.587 111.362 151.744C119.798 150.901 127.391 148.372 135.827 145.843C136.671 145.843 135.827 143.314 134.14 143.314Z"/>
                  <path d="M95.3322 129.826C86.8957 128.982 80.1465 123.924 73.3973 118.866C66.6481 113.808 59.899 108.75 53.9934 102.849C53.1498 104.535 52.3061 106.221 52.3061 107.064C68.3354 108.75 83.5211 112.965 97.8631 118.866C103.769 121.395 109.674 123.924 114.736 127.296C117.267 128.983 118.954 130.669 121.485 132.355C123.173 133.198 124.86 134.884 125.704 136.57C126.547 137.413 127.391 136.57 127.391 135.727C128.234 131.512 122.329 127.296 118.954 124.767C113.892 120.552 107.143 117.18 101.238 114.651C85.2084 107.907 69.1791 102.849 52.3061 101.163C49.7752 101.163 48.9315 104.535 50.6188 105.378C57.368 112.122 64.9609 118.023 72.5537 123.924C79.3029 128.983 87.7394 134.041 96.1758 132.355C97.8631 132.355 97.0195 129.826 95.3322 129.826Z"/>
                  <path d="M119.798 123.081C113.892 113.808 107.987 104.535 101.238 95.2616C98.7068 91.8895 96.1758 87.6744 92.8012 84.3023C90.2703 81.7732 86.0521 76.7151 81.8338 76.7151C80.9902 76.7151 80.1465 77.5581 80.9902 78.4011C81.8338 80.0871 83.5211 81.7732 85.2084 82.6162C86.8957 84.3023 88.583 85.9883 90.2703 86.8313C93.6449 90.2034 96.1758 94.4185 98.7068 97.7906C104.612 106.221 111.361 114.651 118.111 123.081C118.954 125.61 120.642 123.924 119.798 123.081Z"/>
                  <path d="M84.3648 80.9302C80.9902 68.2848 79.3029 56.4825 78.4592 43.8372C77.6156 31.1918 77.6156 18.5465 80.1465 5.90111C79.3029 5.90111 79.3029 5.90111 78.4592 5.90111C80.9902 11.8023 84.3648 17.7034 86.0521 24.4476C87.7394 31.1918 90.2703 37.093 91.1139 43.8372C91.9576 50.5813 91.9576 57.3255 91.9576 64.0697C91.9576 67.4418 91.1139 71.6569 90.2703 75.029C89.4266 77.5581 88.583 80.0872 89.4267 83.4593C89.4267 84.3023 90.2703 84.3023 91.1139 83.4593C93.6449 81.7732 93.6449 78.4011 94.4885 75.029C95.3322 71.6569 95.3322 68.2848 96.1758 64.9127C97.0195 57.3255 96.1758 50.5813 95.3322 42.9941C92.8012 30.3488 88.583 15.1744 79.3029 5.05809C78.4592 4.21506 77.6156 5.05809 77.6156 5.05809C75.0846 17.7034 72.5537 30.3488 73.3973 42.9941C74.241 55.6395 76.7719 68.2848 80.9902 80.9302C82.6775 83.4593 85.2084 82.6162 84.3648 80.9302Z"/>
                  <path d="M86.0521 81.7732C58.2117 85.9883 28.684 78.4011 6.74913 59.0116C6.74913 60.6976 5.90548 61.5406 5.06183 63.2267C17.7166 62.3837 30.3713 62.3837 42.1824 64.0697C54.8371 65.7558 66.6481 69.1279 78.4592 74.186C81.8338 75.872 83.5211 72.4999 80.9902 70.8139C70.8664 63.2267 57.368 60.6976 45.5569 59.0116C32.0586 57.3255 18.5602 57.3255 5.06183 58.1686C2.53089 58.1686 1.68724 60.6976 3.37454 62.3837C25.3094 83.4592 58.2117 93.5755 86.8957 84.3023C89.4267 83.4592 88.583 80.9302 86.0521 81.7732Z"/>
                  <path d="M67.4918 64.0697C57.368 59.0116 51.4625 49.7383 44.7133 41.3081C37.9641 32.0348 32.0586 21.9186 26.153 11.8023C25.3094 12.6453 25.3094 13.4883 24.4657 14.3314C35.4332 17.7034 46.4006 23.6046 56.5244 30.3488C60.7426 32.8779 64.9609 36.25 68.3354 39.622C70.0227 41.3081 71.71 43.8372 73.3973 45.5232C73.3973 47.2093 74.241 49.7383 75.9283 51.4244C76.7719 52.2674 78.4592 51.4244 78.4592 50.5813C79.3029 46.3662 74.241 41.3081 71.71 37.936C68.3354 33.7209 64.1172 30.3488 59.0553 27.8197C48.9315 21.0755 37.1205 16.0174 25.3094 10.9593C23.6221 10.9593 22.7784 12.6453 23.6221 13.4883C28.684 24.4476 35.4332 35.4069 42.1824 45.5232C48.0879 53.9534 55.6807 64.0697 66.6481 65.7558C67.4918 65.7558 68.3354 64.9127 67.4918 64.0697Z"/>
              </symbol><symbol id="leaf-2_hero" viewBox="0 0 157 218">

                    <path d="M1.09022 217.728C26.9843 167.17 63.7812 123.95 102.486 82.6334C107.937 76.9251 113.389 71.2169 118.84 65.2369C121.566 62.5186 124.019 59.8004 126.745 57.0822C129.47 54.364 132.196 51.6458 134.377 48.6558C134.649 48.384 134.104 48.1122 133.832 48.1122C128.38 51.9177 124.019 57.6259 119.385 62.2468C114.479 67.4114 109.3 72.576 104.394 77.7406C94.5815 88.0698 84.769 98.6708 75.5017 109.272C56.967 130.474 39.5225 152.491 23.9861 175.596C15.2638 188.915 7.08674 202.778 -6.238e-05 216.913C-0.272632 217.728 0.817646 218.544 1.09022 217.728Z"/>
                    <path d="M97.3072 85.6234C108.21 73.6633 117.75 59.8004 126.472 45.9376C134.922 32.0748 142.009 17.3965 145.825 1.35905C145.825 0.815406 145.279 -5.53727e-05 144.462 0.271765C137.375 2.98997 133.014 9.78548 128.38 15.7655C122.929 23.1047 117.477 30.4438 112.844 38.3266C103.849 53.0049 95.9444 69.586 93.7638 86.7107C93.7638 87.5261 95.1267 87.798 95.3992 86.9825C99.2152 70.4014 104.939 55.4513 113.661 40.773C117.75 33.7057 122.384 27.182 127.29 20.3865C131.924 13.8628 137.102 5.16453 145.007 2.17451C144.734 1.90269 144.189 1.35905 143.917 1.08723C139.828 16.8528 133.014 31.8029 124.564 45.6658C116.115 59.5286 105.757 72.0324 97.0346 85.6234C96.7621 85.6234 97.0347 85.8952 97.3072 85.6234Z"/>
                    <path d="M95.1267 91.6034C114.752 82.3615 134.649 75.2942 156.182 72.3042C155.91 72.0324 155.637 71.7605 155.092 71.2169C155.365 73.6633 149.641 75.8378 147.733 76.9251C145.279 78.2842 142.826 79.3715 140.373 80.4588C135.194 82.6333 130.016 84.5361 124.837 85.8952C113.661 88.8852 102.213 89.7007 90.7656 91.8752C89.6753 92.1471 89.9479 94.0498 91.0381 94.0498C97.5798 93.2343 104.121 91.8752 110.391 90.788C116.932 89.7007 123.474 88.3416 129.743 86.4388C135.467 84.8079 140.918 82.3615 146.097 79.6433C148.823 78.2842 151.549 76.6533 154.274 75.0224C155.91 73.9351 157.273 72.8478 157 70.9451C157 70.4014 156.455 69.8578 155.91 69.8578C134.649 72.576 112.844 78.8279 94.309 90.2443C94.0364 91.0598 94.309 91.8752 95.1267 91.6034Z"/>
                    <path d="M66.2343 122.047C72.776 105.738 77.1371 88.6134 79.3177 71.2169C80.4079 62.5186 80.9531 53.5486 80.9531 44.8503C80.9531 37.2393 81.2256 28.8129 77.6822 21.7456C77.1371 20.9301 76.0468 21.2019 75.7742 22.0174C63.7812 54.6359 59.1475 89.157 62.6909 123.678C62.6909 124.766 64.8715 125.037 64.5989 123.678C61.3281 89.4289 65.4166 54.6359 77.6822 22.561C77.1371 22.561 76.3194 22.8329 75.7742 22.8329C79.5902 30.172 78.7725 39.9576 78.7725 48.1122C78.7725 56.2668 77.9548 64.4214 77.1371 72.576C74.9565 89.4289 70.868 106.01 65.144 121.775C64.8715 122.591 65.9617 122.591 66.2343 122.047Z"/>
                    <path d="M30.2551 167.441C36.2517 154.122 39.7951 140.259 41.7031 125.853C42.7933 118.514 43.0659 111.175 43.0659 103.835C43.0659 97.0398 42.7933 90.2443 40.0676 83.9925C39.7951 83.7206 39.2499 83.4488 38.9774 83.4488C37.0694 83.9925 36.5242 85.3516 35.9791 87.2543C34.8888 90.788 34.3437 94.5935 33.7985 98.1271C32.4357 105.466 31.3454 112.805 30.5277 120.416C28.8923 135.638 28.3472 151.132 28.6197 166.626C28.6197 167.985 30.5277 167.985 30.5277 166.626C29.9826 153.035 30.5277 139.716 31.8906 126.125C32.4357 119.329 33.526 112.534 34.6163 105.738C35.1614 102.204 35.7065 98.9426 36.5242 95.4089C36.7968 93.5062 37.3419 86.4388 39.5225 85.6234C38.9774 85.3516 38.7048 85.0797 38.1597 84.8079C40.8854 91.3316 40.8854 98.1271 40.8854 105.194C40.8854 112.262 40.3402 119.057 39.5225 125.853C37.6145 139.987 34.0711 153.85 29.4374 167.17C29.4374 167.713 29.9826 167.985 30.2551 167.441Z"/>
                    <path d="M9.53987 202.234C19.3524 198.701 28.8923 194.08 38.7048 190.002C48.5173 185.925 58.3298 181.848 68.1423 178.042C77.9548 174.237 87.7673 170.431 97.8524 166.626C102.486 164.723 107.392 163.092 112.026 161.189C116.66 159.559 122.111 157.928 126.2 155.209C126.745 154.938 126.472 154.394 125.927 154.394C120.748 155.209 115.842 157.656 110.936 159.287C106.029 161.189 101.123 163.092 95.9444 164.995C86.1319 168.8 76.0468 172.606 66.2343 176.411C56.4218 180.217 46.6093 184.294 36.7968 188.372C27.5295 192.177 17.717 195.982 8.99473 201.147C8.72216 201.691 8.99473 202.506 9.53987 202.234Z"/>
                    <path d="M79.3177 172.062C88.0399 161.461 96.7621 150.86 107.12 141.618C117.477 132.105 128.925 123.95 141.191 117.155C140.646 116.883 140.101 116.339 139.556 116.067C134.377 128.299 125.927 138.628 116.115 147.327C106.029 156.025 94.309 162.005 82.8611 168.529C82.3159 168.8 82.5885 169.888 83.4062 169.616C95.9444 164.995 107.937 157.112 118.023 148.414C128.108 139.716 136.557 129.115 141.736 116.611C142.009 115.795 140.918 114.98 140.101 115.524C128.108 122.319 116.66 130.746 106.302 139.987C95.9444 149.229 86.1319 159.83 78.7725 171.519C78.2274 172.062 79.0451 172.606 79.3177 172.062Z"/>
                    <path d="M52.3333 185.11C66.7795 181.848 80.9531 179.401 95.6718 180.489C108.483 181.304 121.293 184.294 131.106 192.992C131.378 192.449 131.378 191.633 131.651 191.09C116.66 193.264 101.123 194.08 85.8593 193.536C78.4999 193.264 71.1406 192.721 63.7812 191.905C59.6926 191.362 55.8767 190.818 51.7881 190.274C48.2447 189.731 44.7013 188.643 41.1579 188.915C40.6128 188.915 40.3402 189.731 40.8854 190.002C43.8836 191.633 47.6996 192.177 50.9704 192.721C54.5138 193.264 58.0572 193.808 61.6006 194.352C69.2326 195.439 77.1371 195.982 85.0416 196.254C100.851 196.798 116.387 195.711 131.924 193.808C132.741 193.808 133.559 192.721 132.741 191.905C123.474 182.935 110.391 179.673 97.8524 178.858C82.5885 177.771 66.2343 179.13 52.0607 184.566C51.243 184.294 51.5156 185.11 52.3333 185.11Z"/>

              </symbol><symbol id="leaf-3_hero" viewBox="0 0 200 227">
                <path d="M1.78958 182.943C6.24173 177.944 10.34 172.613 14.7922 167.615C19.4524 162.679 24.0503 157.95 29.0644 153.347C39.0926 144.141 49.558 135.744 60.5853 127.743C82.4943 111.471 105.049 96.0722 128.685 82.3563C135.239 78.6685 141.794 74.9808 148.494 71.5632C155.194 68.1455 162.747 65.6633 168.864 61.1652C169.738 60.5227 168.947 59.3797 167.99 59.5446C161.289 60.699 155.151 64.5119 149.055 67.4319C142.896 70.5595 136.945 73.7497 130.932 77.1474C118.635 84.0879 106.837 91.6311 95.3936 99.507C73.1722 114.554 50.9718 130.285 30.9778 148.491C25.3604 153.592 19.8262 159.17 14.5626 164.604C9.50708 170.1 4.38918 175.803 0.519949 181.882C0.0623085 182.65 1.12383 183.648 1.78958 182.943Z"/>
                <path d="M142.355 73.1128C153.029 64.7792 163.744 55.5528 169.547 43.0397C170.379 41.0266 172.209 37.9559 171.043 35.7951C169.877 33.6342 167.214 34.1915 165.466 35.4767C162.845 37.4044 160.535 40.5576 158.413 43.0881C156.229 45.8261 153.982 48.7718 151.798 51.5098C149.426 54.8705 147.263 58.2938 145.099 61.7171C143.269 64.7878 140.294 68.6461 140.607 72.1347C140.545 72.3423 141.106 72.7375 141.377 72.5925C144.207 70.7273 145.454 66.5762 147.222 63.713C149.115 60.4347 151.154 57.4266 153.193 54.4184C155.502 51.2653 157.874 47.9045 160.391 44.8139C161.785 43.1961 162.908 41.7233 164.24 40.313C164.843 39.8155 168.484 35.252 168.692 37.5778C168.942 39.0108 167.236 41.6664 166.654 42.8492C165.947 44.4471 165.032 45.9824 164.179 47.3102C162.286 50.5885 160.039 53.5341 157.376 56.3546C152.529 61.9132 146.911 67.014 141.356 71.9073C140.836 72.8825 141.689 73.8179 142.355 73.1128Z"/>
                <path d="M141.294 74.378C144.353 73.2606 147.849 72.9535 151.261 72.1687C154.612 71.5915 157.962 71.0143 161.25 70.6447C167.555 70.0504 174.276 69.5812 180.436 70.98C183.412 71.6481 189.906 74.9576 184.621 77.4426C182.79 78.2501 180.875 78.5799 178.877 78.4321C175.298 78.2615 171.365 77.7583 167.702 77.1101C163.353 76.4818 158.795 75.7909 154.446 75.1626C152.303 74.7447 150.159 74.3268 147.807 73.8463C146.08 73.5534 144.623 73.1156 143.063 73.7781C142.522 74.0681 142.543 74.7533 142.897 75.086C144.041 76.5616 146.039 76.7094 147.975 77.0648C150.326 77.5453 152.678 78.0258 155.092 78.2987C159.441 78.927 163.999 79.6179 168.348 80.2462C174.487 80.9598 181.479 82.6088 187.16 79.5636C189.053 78.5486 190.572 76.5156 190.155 74.1273C189.676 71.9466 187.699 70.2208 185.68 69.3877C180.165 66.5986 173.235 67.0052 167.325 67.0394C162.997 67.0963 158.752 67.6309 154.59 68.6431C152.405 69.1179 149.95 69.7378 147.911 70.4827C145.663 71.1651 143.708 72.3877 141.398 73.2777C140.378 73.6502 140.545 74.6055 141.294 74.378Z"/>
                <path d="M121.007 85.2536C127.104 82.3335 131.264 76.7949 134.738 71.2761C138.275 65.5498 140.833 59.3032 142.559 52.8064C143.37 50.1082 144.576 46.8498 143.535 44.2739C142.785 42.2381 140.537 40.6573 138.228 41.5473C135.648 42.5822 134.171 45.9856 132.798 48.2886C130.967 51.3593 129.283 54.7001 127.868 57.8959C126.267 61.7144 124.811 65.803 123.626 69.7466C122.44 73.6902 121.068 78.2564 121.194 82.3677C121.298 83.5306 122.963 84.031 123.337 82.7856C124.668 79.1122 124.959 75.126 126.082 71.3899C127.204 67.6539 128.535 63.9805 130.075 60.3695C131.551 56.9662 133.299 53.4178 135.191 50.1395C136.107 48.6042 137.084 46.8613 138.208 45.3885C138.936 44.4758 139.872 43.6256 140.809 45.0387C141.454 45.9116 141.08 47.1569 140.83 47.9871C139.313 54.5465 136.567 61.4158 133.447 67.2672C129.932 73.6787 125.209 78.8222 120.424 84.1732C119.821 84.6707 120.258 85.4811 121.007 85.2536Z"/>
                <path d="M123.4 84.8413C126.022 85.1768 128.769 85.0971 131.245 85.1625C134.2 85.1454 137.364 85.1909 140.318 85.1738C146.437 85.2022 152.555 85.2305 158.631 86.1517C160.359 86.4445 170.639 87.7239 169.433 90.9822C168.601 92.9952 164.918 93.925 163.003 94.2548C158.966 94.852 154.638 94.9089 150.559 94.1355C146.001 93.4447 141.423 92.0686 136.969 90.2774C134.534 89.3193 132.37 88.2161 129.935 87.258C127.77 86.1548 125.46 84.7816 123.171 84.0935C121.506 83.5931 120.612 85.8137 121.944 86.6667C123.984 88.1849 126.419 89.1431 128.645 90.0387C130.81 91.1418 133.245 92.1 135.68 93.0581C140.133 94.8493 144.712 96.2254 149.477 96.9788C156.178 98.0876 165.127 98.514 170.411 93.7657C172.284 92.0655 173.178 89.8449 171.534 87.7665C170.181 86.2283 167.954 85.3327 165.873 84.7072C159.837 82.8933 153.157 82.4697 146.831 82.3788C142.565 82.2282 138.445 82.3476 134.262 82.6746C130.829 82.7742 126.708 82.8936 123.233 83.886C122.817 83.7609 122.505 84.7987 123.4 84.8413Z"/>
                <path d="M100.138 99.5751C111.977 91.1392 118.487 77.0281 122.542 63.537C123.478 60.4236 124.206 57.2477 123.622 53.9041C123.205 51.5158 121.831 49.2924 119.126 50.7425C116.422 52.1925 114.55 56.156 112.844 58.8116C110.951 62.0899 109.474 65.4932 107.997 68.8966C106.146 73.5453 104.358 77.9865 102.715 82.6977C101.072 87.409 99.1585 92.2652 98.3481 97.2267C98.1819 98.5345 99.7844 99.2425 100.429 97.8522C102.218 93.411 103.382 88.7822 104.9 84.4861C106.356 80.3975 107.812 76.3089 109.476 72.2829C111.139 68.2568 112.866 64.0233 115.154 60.1849C116.132 58.442 117.38 56.554 118.774 54.9362C119.169 54.3761 119.876 52.7782 120.854 53.2985C121.479 53.4861 121.146 56.1019 121.23 56.5796C121.21 60.4208 119.608 64.2393 118.277 67.9127C116.884 71.7938 115.345 75.4047 113.535 79.1606C110.041 86.2574 105.298 92.9788 99.3472 98.4322C98.9519 98.9923 99.5348 100.073 100.138 99.5751Z"/>
                <path d="M100.096 98.2047C106.922 96.6352 113.581 98.6368 120.178 100.846C123.924 101.972 127.4 103.243 131.021 104.784C132.832 105.554 134.434 106.262 136.182 107.24C137.577 107.886 140.157 109.114 140.886 110.464C141.531 111.337 140.907 111.15 140.012 111.107C139.117 111.064 138.493 110.877 137.598 110.834C135.809 110.749 133.873 110.393 131.938 110.038C128.005 109.535 124.196 108.616 120.388 107.698C113.042 105.716 106.486 102.615 100.367 98.0597C99.0348 97.2068 97.5785 99.0321 98.64 100.03C109.109 109.74 124.572 111.897 138.098 113.7C140.304 113.91 143.342 114.371 144.091 111.88C144.902 109.182 141.614 107.288 139.72 106.04C133.414 102.108 126.4 99.7739 119.324 97.6473C113.081 95.7708 105.797 93.5816 99.3677 96.8542C98.8267 97.1442 99.1391 98.3696 100.096 98.2047Z"/>
                <path d="M81.828 109.913C84.533 108.463 86.2387 105.808 88.0279 103.63C90.1499 101.099 92.0638 98.5062 93.7696 95.8506C97.1188 90.747 101.071 85.1457 101.361 78.8963C101.423 76.4256 100.861 73.7671 99.4868 71.5437C98.1962 69.798 96.2608 69.4426 94.5965 71.2054C92.5368 73.5284 91.2682 76.9943 89.7081 79.92C88.3562 82.9082 87.0666 85.6889 85.7147 88.6772C84.1756 92.2881 83.0527 96.0241 81.9298 99.7601C81.3683 101.628 80.7445 103.704 80.3912 105.634C79.8921 107.295 79.3931 108.955 79.7888 110.658C79.9555 111.614 81.2666 111.781 81.7242 111.014C82.7852 109.748 82.9305 107.755 83.2214 106.032C83.7205 104.372 84.0114 102.649 84.5105 100.988C85.571 97.4599 86.7772 94.2016 88.0458 90.7357C89.3144 87.2698 90.7288 84.074 92.4136 80.7331C93.0584 79.3428 93.9737 77.8074 94.6184 76.4171C95.0137 75.857 95.5751 73.989 96.1161 73.6989C96.1785 73.4914 96.2409 73.2838 96.449 73.3464C96.8652 73.4715 97.2191 73.8041 97.3024 74.2818C100.717 80.2867 95.4534 87.9833 92.3747 92.942C90.6065 95.8051 88.6926 98.3982 86.7163 101.199C84.8024 103.792 81.9937 106.342 80.6417 109.33C80.517 109.746 81.287 110.203 81.828 109.913Z"/>
                <path d="M76.0648 114.744C79.5817 115.122 83.4106 114.462 86.9899 114.633C90.8397 114.659 94.5647 115.099 98.4355 115.81C101.89 116.396 105.282 117.189 108.55 118.397C110.214 118.898 111.609 119.543 113.211 120.251C114.606 120.896 117.124 122.332 117.853 123.683C118.415 124.078 118.498 124.556 118.04 125.323C117.999 126.216 117.666 126.569 116.771 126.526C116.022 126.753 114.982 126.441 114.295 126.461C112.505 126.375 110.57 126.02 108.78 125.935C104.847 125.431 101.184 124.783 97.376 123.865C93.7757 123.009 90.2378 121.946 86.7623 120.675C83.0787 119.341 79.3118 117.53 75.6905 115.989C74.2961 115.344 73.4018 117.565 74.5257 118.355C80.6862 122.017 88.3863 124.331 95.3164 126.188C102.038 127.982 109.509 129.548 116.585 129.412C118.645 129.352 121.163 128.525 121.641 126.179C122.181 123.626 119.226 121.38 117.332 120.132C111.92 116.242 104.928 114.593 98.435 113.547C94.5642 112.836 90.5687 112.54 86.7189 112.515C83.0772 112.552 79.0193 112.464 75.69 113.726C74.8576 113.476 75.4405 114.556 76.0648 114.744Z"/>
                <path d="M49.0789 133.564C52.5743 130.993 55.2787 127.28 57.7751 123.504C60.4795 119.791 62.8301 115.745 65.1807 111.699C69.7571 104.022 74.3959 96.1379 75.7049 87.2528C76.2244 84.0144 76.2857 79.2804 74.4122 76.4543C72.8302 74.1683 70.5205 75.0583 68.8561 76.8211C63.0101 83.4373 60.6191 92.9025 57.9157 101.142C56.0856 106.476 54.2556 111.81 52.4879 116.936C51.7393 119.427 50.7203 122.063 49.9717 124.553C49.2855 126.837 47.8502 129.347 48.5374 131.59C48.6831 131.861 49.0993 131.986 49.3698 131.841C51.1799 130.348 51.5123 127.732 52.3442 125.719C53.0928 123.228 53.9871 121.008 54.7357 118.517C56.5034 113.391 58.2711 108.264 60.0387 103.138C61.6193 98.6344 62.9917 94.0682 64.7803 89.627C65.7994 86.9914 67.0266 84.4182 68.3995 82.1152C68.8571 81.3475 69.3772 80.3723 70.0429 79.6671C70.8334 78.5469 72.144 76.4514 72.8312 78.6947C75.8092 88.4157 69.1941 99.1006 64.5553 106.985C62.1423 111.238 59.4589 115.637 56.8378 119.828C54.2167 124.019 50.8256 127.752 48.4126 132.006C47.3516 133.271 48.2674 133.999 49.0789 133.564Z"/>
                <path d="M50.2447 135.724C58.5891 134.385 67.3707 133.856 75.8403 134.365C84.1019 134.811 93.6745 135.426 100.044 141.413C100.023 140.728 100.21 140.105 100.126 139.628C96.9015 142.053 91.6573 141.382 88.0156 141.419C83.4791 141.413 79.0049 141.2 74.3851 140.717C69.7652 140.234 64.9996 139.48 60.2964 138.519C58.1529 138.101 55.8013 137.621 53.7202 136.995C52.0553 136.495 50.3904 135.995 48.476 136.324C47.9974 136.407 47.7479 137.237 48.1017 137.57C49.7252 138.963 51.8687 139.381 54.0122 139.799C56.5719 140.342 59.1316 140.885 61.6913 141.428C66.6026 142.451 71.4306 142.997 76.5291 143.398C81.6275 143.799 86.7884 143.992 92.074 143.77C95.7157 143.733 99.3574 143.696 102.312 141.416C102.915 140.919 102.957 140.026 102.395 139.631C96.0256 133.643 86.5777 132.614 78.1705 131.897C68.806 131.346 59.4834 132.165 50.3485 134.624C49.1832 134.727 49.4956 135.952 50.2447 135.724Z"/>
                <path d="M28.8977 152.392C34.8895 146.046 39.4035 138.576 42.5232 130.462C43.9789 126.373 45.2266 122.222 45.7875 118.091C46.2446 115.06 47.097 111.469 44.0791 109.43C43.5172 109.035 42.56 109.2 42.3728 109.823C38.2955 115.839 36.6741 123.499 34.6154 130.348C33.4926 134.084 32.3697 137.82 31.2468 141.556C30.6854 143.424 30.0615 145.5 29.5001 147.368C29.0634 148.821 28.3562 150.419 28.752 152.122C28.8354 152.599 29.4597 152.787 29.7926 152.434C30.9993 151.439 31.2902 149.716 31.7893 148.056C32.2884 146.395 32.7874 144.735 33.2865 143.074C34.4094 139.338 35.5323 135.602 36.6551 131.866C38.7138 125.017 40.1895 117.087 44.4749 111.133C43.9963 111.216 43.2472 111.443 42.7686 111.526C44.0382 112.586 43.4978 115.14 43.1235 116.385C42.8325 118.108 42.4792 120.038 41.9801 121.699C41.1277 125.29 39.8591 128.756 38.6529 132.014C35.9076 138.883 31.7678 145.107 27.0662 150.936C26.2756 152.056 27.8991 153.449 28.8977 152.392Z"/>
                <path d="M28.9606 154.447C42.1948 151.183 58.1764 150.103 67.814 161.825C68.0635 160.995 68.313 160.165 68.5626 159.335C61.654 160.426 54.433 160.293 47.5863 158.914C44.1317 158.328 41.0101 157.39 37.6803 156.389C34.4129 155.181 31.416 153.828 28.1486 152.619C26.6918 152.181 25.8599 154.194 26.9838 154.985C32.8114 158.999 40.6363 160.899 47.7535 162.132C54.8707 163.366 62.1541 163.292 69.2707 162.263C70.4361 162.161 70.6646 160.645 70.0193 159.772C59.8822 147.447 42.0067 147.279 28.4401 153.159C27.6286 153.594 28.2115 154.675 28.9606 154.447Z"/>

              </symbol><symbol id="product-group_background" viewBox="0 0 86 84">
                  <path fill-rule="evenodd" clip-rule="evenodd" d="M22.2124 73.0488C2.04991 55.024 -6.19901 31.5314 5.47636 9.58807C19.4706 -16.7134 24.2625 22.7259 45.752 15.7427C67.2414 8.75945 95.8735 26.1173 81.2288 57.0458C67.5195 85.9987 42.375 91.0736 22.2124 73.0488Z"/>
                </symbol><symbol id="add-to-cart" viewBox="0 0 45 50">
<path d="M9.81296 47.4389C10.8969 47.4389 11.7756 46.5602 11.7756 45.4763C11.7756 44.3924 10.8969 43.5137 9.81296 43.5137C8.72905 43.5137 7.85037 44.3924 7.85037 45.4763C7.85037 46.5602 8.72905 47.4389 9.81296 47.4389Z"/>
<path d="M23.5511 47.4389C24.635 47.4389 25.5137 46.5602 25.5137 45.4763C25.5137 44.3924 24.635 43.5137 23.5511 43.5137C22.4672 43.5137 21.5885 44.3924 21.5885 45.4763C21.5885 46.5602 22.4672 47.4389 23.5511 47.4389Z"/>
<path d="M27.4763 24.8691H5.71114L4.90648 20.7476C4.8606 20.5227 4.73728 20.3209 4.55798 20.1774C4.37868 20.034 4.15475 19.958 3.92518 19.9626H0V21.9252H3.12052L6.86907 40.7661C6.91495 40.9911 7.03827 41.1928 7.21757 41.3363C7.39687 41.4797 7.6208 41.5557 7.85037 41.5511H25.5137V39.5885H8.65503L7.85037 35.6633H25.5137C25.7405 35.6689 25.9623 35.5956 26.1412 35.4561C26.3201 35.3165 26.4451 35.1193 26.495 34.8979L28.4576 26.0663C28.4905 25.9207 28.4897 25.7695 28.4553 25.6242C28.421 25.479 28.354 25.3435 28.2593 25.228C28.1647 25.1126 28.045 25.0202 27.9093 24.958C27.7736 24.8958 27.6255 24.8654 27.4763 24.8691ZM24.7287 33.7007H7.47748L6.10366 26.8317H26.2497L24.7287 33.7007Z"/>
<path d="M35.0674 28.2529C35.7852 28.2529 36.2539 27.7109 36.2539 26.9932V21.8516H41.1025C41.8203 21.8516 42.3623 21.3828 42.3623 20.665C42.3623 19.9473 41.8203 19.4785 41.1025 19.4785H36.2539V14.3223C36.2539 13.6045 35.7852 13.0625 35.0674 13.0625C34.3496 13.0625 33.8809 13.6045 33.8809 14.3223V19.4785H29.0176C28.2998 19.4785 27.7578 19.9473 27.7578 20.665C27.7578 21.3828 28.2998 21.8516 29.0176 21.8516H33.8809V26.9932C33.8809 27.7109 34.3496 28.2529 35.0674 28.2529Z"/>
</symbol><symbol id="aromatherapy" viewBox="0 0 68 100">
                  <path d="M56.2337 42.8572H12.3493C11.1856 42.8572 10.0688 42.3555 9.24612 41.4626C8.42344 40.5698 7.96094 39.3579 7.96094 38.0954V28.5716C7.96094 27.695 8.61594 26.9843 9.42375 26.9843H59.1594C59.5473 26.9843 59.9195 27.1515 60.1938 27.4491C60.4681 27.7467 60.6222 28.1506 60.6222 28.5716V38.0954C60.6222 39.3581 60.1599 40.5699 59.337 41.4626C58.5142 42.3553 57.3974 42.8572 56.2338 42.8572H56.2337ZM10.8865 30.1588V38.0953C10.8865 38.5162 11.0406 38.9201 11.3149 39.2177C11.5892 39.5153 11.9614 39.6826 12.3493 39.6826H56.2337C56.6216 39.6826 56.9938 39.5153 57.2681 39.2177C57.5424 38.9201 57.6965 38.5162 57.6965 38.0953V30.1588H10.8865Z"/>
                  <path d="M56.2337 100H12.3493C11.8275 99.9986 11.3462 99.6967 11.0857 99.2064C10.6599 98.4127 0.646865 79.6436 0.646865 66.6658C0.637069 62.8697 1.58659 59.1431 3.3916 55.8912C5.1973 52.6393 7.78924 49.9862 10.8866 48.2212V41.269H13.8122V49.2055C13.8122 49.8404 13.4635 50.4144 12.926 50.6645C10.1323 52.0995 7.77088 54.3643 6.11548 57.1966C4.46003 60.0289 3.57837 63.3119 3.57252 66.6658C3.57252 77.3724 11.3169 93.142 13.2023 96.8245H55.3815C57.2668 93.1418 65.0113 77.3615 65.0113 66.6658C65.0048 63.3105 64.1219 60.026 62.4652 57.1937C60.8078 54.3614 58.4444 52.0965 55.6493 50.6623C55.1158 50.4101 54.771 49.8375 54.7717 49.2054V41.2689H57.6973V48.2211C60.7946 49.9863 63.3865 52.6393 65.1922 55.8911C66.9973 59.143 67.9468 62.8696 67.937 66.6657C67.937 79.6433 57.9238 98.4118 57.4982 99.2063C57.2376 99.6967 56.7563 99.9986 56.2345 100L56.2337 100Z"/>
                  <path d="M51.8452 92.0635H16.7377C16.1225 92.0635 15.5733 91.6461 15.3624 91.019C15.1286 90.2955 9.42371 73.2015 9.42371 65.0797C9.43938 62.4535 10.2929 59.9138 11.8399 57.8937C13.387 55.8736 15.5316 54.498 17.908 54.0005C18.004 53.9786 18.102 53.968 18.2006 53.9687H50.3825C50.4811 53.968 50.579 53.9786 50.675 54.0005C53.0515 54.498 55.196 55.8734 56.7431 57.8937C58.2902 59.914 59.1436 62.4537 59.1594 65.0797C59.1594 73.2018 53.4544 90.2952 53.2207 91.019C53.0097 91.6461 52.4605 92.0635 51.8454 92.0635H51.8452ZM17.7725 88.8889H50.8104C52.0499 85.0396 56.2333 71.559 56.2333 65.0793C56.2196 63.2099 55.6156 61.4022 54.5211 59.9575C53.4272 58.5134 51.9103 57.5198 50.2228 57.1428H18.3635C16.6807 57.5304 15.1689 58.5268 14.0757 59.9688C12.9832 61.4108 12.3738 63.2128 12.3484 65.0793C12.3484 71.559 16.5317 85.0394 17.7714 88.8889H17.7725Z"/>
                  <path d="M43.0683 92.0635H25.5146C24.7068 92.0635 24.0518 91.3528 24.0518 90.4762V80.9524C24.0518 80.0759 24.7068 79.3651 25.5146 79.3651H43.0683C43.4562 79.3651 43.8285 79.5323 44.1027 79.83C44.377 80.1276 44.5311 80.5315 44.5311 80.9524V90.4762C44.5311 90.8971 44.377 91.3011 44.1027 91.5987C43.8285 91.8963 43.4562 92.0635 43.0683 92.0635ZM26.9774 88.8889H41.6055V82.5397H26.9774V88.8889Z"/>
                  <path d="M34.2915 76.1905C32.7398 76.1905 31.2515 75.5216 30.1538 74.3311C29.0567 73.1399 28.4402 71.5249 28.4402 69.8413C28.4402 66.7603 32.4074 61.8063 33.2028 60.8446C33.4875 60.5229 33.8807 60.3408 34.2914 60.3408C34.7022 60.3408 35.0953 60.5229 35.38 60.8446C36.1754 61.8062 40.1426 66.7601 40.1426 69.8413C40.1426 71.5249 39.5261 73.14 38.429 74.3311C37.3313 75.5216 35.843 76.1905 34.2914 76.1905H34.2915ZM34.2915 64.3637C32.7392 66.4684 31.3658 68.8301 31.3658 69.8413C31.3658 70.9758 31.9235 72.0238 32.8287 72.5907C33.7338 73.1576 34.8492 73.1576 35.7543 72.5907C36.6594 72.0238 37.2171 70.9757 37.2171 69.8413C37.2171 68.857 35.8451 66.4775 34.2915 64.3637Z"/>
                  <path d="M32.8287 74.6031H35.7543V80.9524H32.8287V74.6031Z"/>
                  <path d="M26.9774 19.0476H24.0518C24.0518 18.1555 23.7344 17.7778 23.0173 16.9956C21.821 15.9468 21.1262 14.3673 21.1262 12.6984C21.1262 11.0295 21.8211 9.45016 23.0173 8.40127C23.7344 7.61896 24.0518 7.24127 24.0518 6.34921C24.0518 5.45714 23.7344 5.07936 23.0173 4.29714C21.8353 3.23634 21.1431 1.66458 21.1262 0H24.0518C24.0518 0.892154 24.3692 1.26984 25.0863 2.05206C26.2683 3.11287 26.9605 4.68463 26.9774 6.34921C26.9604 8.01375 26.2682 9.58549 25.0863 10.6463C24.3692 11.4287 24.0518 11.8063 24.0518 12.6984C24.0518 13.5905 24.3692 13.9683 25.0863 14.7505C26.2683 15.8113 26.9605 17.383 26.9774 19.0476Z"/>
                  <path d="M37.217 19.0476H34.2914C34.2914 18.1555 33.974 17.7778 33.257 16.9956C32.0606 15.9468 31.3659 14.3673 31.3659 12.6984C31.3659 11.0295 32.0607 9.45016 33.257 8.40127C33.974 7.61896 34.2914 7.24127 34.2914 6.34921C34.2914 5.45714 33.974 5.07936 33.257 4.29714C32.075 3.23634 31.3828 1.66458 31.3659 0H34.2915C34.2915 0.892154 34.6089 1.26984 35.3259 2.05206C36.5079 3.11287 37.2002 4.68463 37.217 6.34921C37.2001 8.01375 36.5078 9.58549 35.3259 10.6463C34.6089 11.4287 34.2915 11.8063 34.2915 12.6984C34.2915 13.5905 34.6089 13.9683 35.3259 14.7505C36.5079 15.8113 37.2002 17.383 37.217 19.0476Z"/>
                  <path d="M47.4568 19.0476H44.5311C44.5311 18.1555 44.2138 17.7778 43.4967 16.9956C42.3004 15.9468 41.6056 14.3673 41.6056 12.6984C41.6056 11.0295 42.3004 9.45016 43.4967 8.40127C44.2138 7.61896 44.5311 7.24127 44.5311 6.34921C44.5311 5.45714 44.2138 5.07936 43.4967 4.29714C42.3147 3.23634 41.6225 1.66458 41.6056 0H44.5312C44.5312 0.892154 44.8486 1.26984 45.5656 2.05206C46.7476 3.11287 47.4399 4.68463 47.4568 6.34921C47.4398 8.01375 46.7476 9.58549 45.5656 10.6463C44.8486 11.4287 44.5312 11.8063 44.5312 12.6984C44.5312 13.5905 44.8486 13.9683 45.5656 14.7505C46.7476 15.8113 47.4399 17.383 47.4568 19.0476Z"/>
                  <path d="M9.42365 33.3333H54.7708V36.5079H9.42365V33.3333Z"/>
                </symbol><symbol id="cosmetics" viewBox="0 0 88 100">
                  <path d="M85.9093 56.8629H82.2953V52.9414H85.9093V49.0198H82.2953V43.1374C82.2953 42.6175 82.1049 42.1185 81.7661 41.7509C81.4273 41.3833 80.9674 41.1767 80.4883 41.1767H76.8743V35.2943C76.8718 32.6788 76.1813 30.1183 74.8841 27.9142C73.587 25.71 71.7373 23.9523 69.5519 22.8493L69.727 22.3416H69.7278C72.0841 15.5226 72.0092 7.99474 69.5173 1.23263C69.3083 0.666287 68.8687 0.237358 68.3274 0.0727869C67.7861 -0.0917797 67.2045 0.026393 66.7551 0.392293L62.4183 3.9217C59.3109 6.45054 55.8487 8.41917 52.1636 9.7525C48.4786 11.0865 44.6195 11.7658 40.7343 11.7649C36.0103 11.7641 31.4403 13.59 27.8449 16.9145C24.2487 20.2391 21.8624 24.8452 21.113 29.9065C18.7436 30.6199 16.6165 32.0643 14.9902 34.0654C13.3647 36.0664 12.3097 38.5367 11.9539 41.1766H8.2083C7.21043 41.1766 6.4013 42.0546 6.4013 43.1374V49.0198H2.7873V52.9413H6.4013V56.8629H2.7873C1.78942 56.8629 0.980301 57.7409 0.980301 58.8237V92.1569C0.982721 94.2368 1.74504 96.23 3.09955 97.7005C4.4548 99.1702 6.29164 99.9974 8.2083 100H80.4883C82.405 99.9974 84.2419 99.1702 85.5971 97.7005C86.9515 96.2299 87.7139 94.2367 87.7163 92.1569V58.8237C87.7163 58.3037 87.526 57.8048 87.1871 57.4371C86.8483 57.0695 86.3885 56.8629 85.9093 56.8629L85.9093 56.8629ZM24.4712 33.3335H47.9622V29.412H24.8781C25.6977 25.5133 27.7121 22.0318 30.5927 19.5388C33.4734 17.0449 37.0496 15.6865 40.7345 15.6865C45.0074 15.6874 49.2532 14.9399 53.3068 13.4728C57.3605 12.0065 61.1688 9.84095 64.5869 7.0591L66.936 5.14735C68.3017 10.3529 68.0944 15.8967 66.343 20.9649L66.0825 21.7186H66.0833C65.4678 21.6197 64.8474 21.5689 64.2255 21.5689H55.1905V25.4905H64.2255C66.6206 25.4931 68.9173 26.5269 70.6113 28.3651C72.3053 30.2033 73.258 32.6954 73.2605 35.2944V41.1767H15.6182C16.0376 38.9638 17.1469 36.9759 18.7595 35.5465C20.3729 34.1179 22.3896 33.3362 24.4716 33.3336L24.4712 33.3335ZM10.0152 52.9414H26.2782V49.0198H10.0152V45.0982H78.6813V49.0198H73.2603V52.9414H78.6813V56.8629H10.0152V52.9414ZM84.1023 92.157C84.1015 93.1969 83.7199 94.193 83.0423 94.9283C82.3646 95.6635 81.4466 96.0776 80.4883 96.0785H8.20827C7.24992 96.0776 6.3319 95.6636 5.65431 94.9283C4.97671 94.193 4.59511 93.1968 4.59431 92.157V60.7845H84.1023L84.1023 92.157Z"/>
                  <path d="M29.8923 49.0198H69.6463V52.9413H29.8923V49.0198Z"/>
                  <path d="M44.3482 88.2354C46.7442 88.2354 49.0423 87.2025 50.7374 85.3644C52.4314 83.5253 53.3832 81.0314 53.3832 78.4315C53.3832 75.8316 52.4313 73.338 50.7374 71.4987C49.0425 69.6604 46.7442 68.6276 44.3482 68.6276C41.9523 68.6276 39.6542 69.6605 37.9591 71.4987C36.265 73.3378 35.3132 75.8316 35.3132 78.4315C35.3157 81.0305 36.2684 83.5226 37.9624 85.3608C39.6564 87.199 41.9531 88.2327 44.3482 88.2354ZM44.3482 72.5492C45.7858 72.5492 47.1653 73.1689 48.1816 74.2719C49.1978 75.3748 49.7691 76.8718 49.7691 78.4314C49.7691 79.9911 49.198 81.4882 48.1816 82.591C47.1651 83.6937 45.7856 84.3136 44.3482 84.3136C42.9109 84.3136 41.5312 83.6939 40.5149 82.591C39.4987 81.488 38.9273 79.9911 38.9273 78.4314C38.9289 76.8716 39.5009 75.3764 40.5173 74.2743C41.533 73.1714 42.9108 72.5508 44.3484 72.549L44.3482 72.5492Z"/>
                </symbol><symbol id="diffsusers" viewBox="0 0 90 100">
                  <path d="M73.4019 58.6781H67.6899C66.9541 58.6781 66.3571 58.0303 66.3571 57.2319V50.0006C66.3571 47.4939 68.2359 45.4553 70.5459 45.4553C72.8558 45.4553 74.7347 47.4941 74.7347 50.0006V57.2319C74.7347 58.0303 74.1376 58.6781 73.4019 58.6781H73.4019ZM69.0227 55.7857H72.0691V50.0007C72.0691 49.0894 71.3857 48.3478 70.5459 48.3478C69.7061 48.3478 69.0227 49.0894 69.0227 50.0007V55.7857Z"/>
                  <path d="M40.0822 99.9999H40.0815L39.8789 99.9991C32.5341 99.943 25.6019 96.7944 20.3606 91.1341C15.1177 85.4737 12.1826 77.9672 12.095 69.9982C11.9788 59.4109 16.8267 49.6915 25.0636 43.9981C30.0564 40.5463 33.0376 34.6808 33.0376 28.307C33.0376 27.5086 33.6346 26.8607 34.3704 26.8607H45.7947C46.5304 26.8607 47.1275 27.5086 47.1275 28.307C47.1275 34.694 50.093 40.5493 55.0605 43.9694C59.5078 47.0316 63.0581 51.3682 65.3322 56.5142C65.4437 56.7252 65.5076 56.9709 65.5076 57.2321C65.5076 57.9988 64.9582 58.626 64.2632 58.6754L64.2639 61.9842H66.1224C66.7487 61.9842 67.2913 62.4579 67.4246 63.122C67.4736 63.3662 67.5219 63.6105 67.5647 63.8562C67.6354 64.2569 67.5477 64.6708 67.322 64.997L62.3599 72.1767V87.5224C62.3599 87.8471 62.2592 88.1629 62.0736 88.4182C56.7259 95.7779 48.7098 100 40.0833 100L40.0822 99.9999ZM35.658 29.752C35.2398 36.5532 31.8813 42.7137 26.4948 46.4364C19.0419 51.5882 14.6543 60.3832 14.7598 69.9638C14.923 84.8248 26.1997 97.0009 39.8975 97.1067L40.0811 97.1074C47.7347 97.1074 54.8558 93.435 59.6935 87.0138V71.6944C59.6935 71.3816 59.7866 71.0768 59.96 70.8267L64.0728 64.8763H62.9303C62.1945 64.8763 61.5975 64.2285 61.5975 63.4301V57.2319C61.5975 56.7641 61.8015 56.3487 62.1191 56.0845C60.0696 52.1618 57.1631 48.8436 53.6311 46.4116C48.2658 42.7176 44.9208 36.5667 44.5045 29.7529L35.658 29.752Z"/>
                  <path d="M74.9252 99.9999H66.1666C62.5972 99.9999 59.6928 96.8483 59.6928 92.9751V71.6937C59.6928 70.8953 60.2898 70.2474 61.0256 70.2474H80.0669C80.8027 70.2474 81.3998 70.8953 81.3998 71.6937V92.9751C81.3998 96.8483 78.4953 99.9999 74.9259 99.9999H74.9252ZM62.3584 73.1403V92.9747C62.3584 95.2532 64.0666 97.1069 66.1665 97.1069H74.925C77.0248 97.1069 78.7331 95.2533 78.7331 92.9747V73.1403H62.3584Z"/>
                  <path d="M80.0659 73.1403H61.0245C60.52 73.1403 60.0582 72.8311 59.8324 72.3411C59.6067 71.8512 59.6556 71.2645 59.9583 70.8262L65.6703 62.5619C65.9219 62.1981 66.317 61.9834 66.7366 61.9834H74.3528C74.7723 61.9834 75.1674 62.1974 75.419 62.5619L81.1311 70.8262C81.4337 71.2645 81.4826 71.8512 81.2569 72.3411C81.0311 72.8311 80.5694 73.1403 80.0648 73.1403H80.0659ZM63.6912 70.2478H77.4003L73.6874 64.8759H67.404L63.6912 70.2478Z"/>
                  <path d="M78.1631 64.8759H62.9308C62.195 64.8759 61.5979 64.2281 61.5979 63.4297V57.2315C61.5979 56.4331 62.195 55.7853 62.9308 55.7853H78.1631C78.8989 55.7853 79.496 56.4331 79.496 57.2315V63.4297C79.496 64.2281 78.8989 64.8759 78.1631 64.8759ZM64.2635 61.9835H76.8303V58.6778H64.2635V61.9835Z"/>
                  <path d="M87.6821 99.9999H1.99954C1.26376 99.9999 0.666718 99.352 0.666718 98.5536C0.666718 97.7552 1.26377 97.1074 1.99954 97.1074H87.6821C88.4179 97.1074 89.0149 97.7552 89.0149 98.5536C89.0149 99.352 88.4178 99.9999 87.6821 99.9999Z"/>
                  <path d="M43.8894 29.752H36.2732C35.5374 29.752 34.9404 29.1041 34.9404 28.3057V21.8964C33.7048 22.9619 32.1672 23.5537 30.5611 23.5537C28.6565 23.5537 26.8796 22.742 25.563 21.2973C25.0163 21.4242 24.4587 21.4877 23.897 21.4877C19.4871 21.4877 15.8999 17.5954 15.8999 12.81C15.8999 8.02463 19.4869 4.13236 23.897 4.13236C25.7691 4.13236 27.5738 4.85548 28.9943 6.12827C30.6515 3.61062 33.343 2.06618 36.2731 2.06618C38.3207 2.06618 40.2614 2.81144 41.8256 4.15956C43.255 1.63303 45.8323 0 48.6495 0C52.2475 0 55.2912 2.55524 56.2949 6.11939C57.5713 4.8672 59.2537 4.13217 61.0258 4.13217C64.91 4.13217 68.0709 7.56107 68.0709 11.7767C68.0709 15.9924 64.9102 19.4213 61.0258 19.4213C59.7664 19.4213 58.5608 19.0664 57.502 18.4001C55.972 21.511 52.9431 23.5534 49.6016 23.5534C48.0518 23.5534 46.5462 23.1166 45.2223 22.3101V28.3054C45.2223 29.1038 44.6252 29.7516 43.8895 29.7516L43.8894 29.752ZM37.606 26.8596H42.5566V19.308C42.5566 18.7066 42.9 18.1679 43.4182 17.9554C43.9371 17.7429 44.5226 17.9008 44.8891 18.3517C46.0825 19.8193 47.8003 20.6613 49.6015 20.6613C52.3998 20.6613 54.8859 18.6218 55.647 15.7012C55.7768 15.2039 56.1413 14.8194 56.6031 14.6925C57.0655 14.5656 57.5544 14.7161 57.8863 15.0873C58.7179 16.017 59.8332 16.5291 61.0259 16.5291C63.4406 16.5291 65.4051 14.3974 65.4051 11.7772C65.4051 9.15694 63.4406 7.02522 61.0259 7.02522C59.3401 7.02522 57.7849 8.09516 57.0634 9.75179C56.86 10.2189 56.4425 10.5325 55.9685 10.5753C55.4952 10.6173 55.0349 10.3834 54.7635 9.95914C54.6241 9.74147 54.4711 9.5297 54.3072 9.32973C54.1046 9.08106 53.987 8.76377 53.974 8.43246C53.855 5.32601 51.5158 2.89318 48.6495 2.89318C46.2926 2.89318 44.1872 4.60729 43.5304 7.06219C43.3916 7.5824 42.9959 7.97421 42.5063 8.07825C42.016 8.1823 41.5141 7.98012 41.2047 7.55584C40.0031 5.90591 38.2058 4.95923 36.2733 4.95923C33.7544 4.95923 31.4866 6.58554 30.4952 9.10179C30.3075 9.57919 29.8975 9.9105 29.4221 9.97029C28.9468 10.0308 28.4783 9.80795 28.1954 9.38958C27.1931 7.90938 25.5862 7.02531 23.8971 7.02531C20.9573 7.02531 18.5658 9.62041 18.5658 12.8104C18.5658 16.0003 20.9573 18.5954 23.8971 18.5954C24.4744 18.5954 25.0456 18.4943 25.5944 18.2943C26.135 18.0973 26.7321 18.2958 27.0782 18.788C27.9153 19.9789 29.185 20.6615 30.5613 20.6615C31.8513 20.6615 33.0705 20.0468 33.9056 18.9754C34.213 18.5814 34.6903 18.3947 35.1582 18.4862C35.5322 18.5592 35.9069 18.5954 36.2734 18.5954C37.0092 18.5954 37.6062 19.2433 37.6062 20.0416L37.606 26.8596Z"/>
                  <path d="M40.0822 91.7355C28.8484 91.7355 19.7091 81.8183 19.7091 69.6286C19.7091 68.8302 20.3062 68.1824 21.042 68.1824C21.7777 68.1824 22.3748 68.8302 22.3748 69.6286C22.3748 80.2232 30.3188 88.8434 40.0826 88.8434C40.8184 88.8434 41.4155 89.4913 41.4155 90.2897C41.4155 91.0881 40.8184 91.7359 40.0826 91.7359L40.0822 91.7355Z"/>
                  <path d="M40.0822 66.9425C37.2473 66.9425 34.9413 64.4403 34.9413 61.3641C34.9413 58.2879 37.2473 55.7857 40.0822 55.7857C42.9172 55.7857 45.2231 58.2879 45.2231 61.3641C45.2231 64.4403 42.9172 66.9425 40.0822 66.9425ZM40.0822 58.6781C38.7174 58.6781 37.6069 59.8831 37.6069 61.3641C37.6069 62.8451 38.7174 64.05 40.0822 64.05C41.4471 64.05 42.5575 62.8451 42.5575 61.3641C42.5575 59.8831 41.4471 58.6781 40.0822 58.6781Z"/>
                  <path d="M48.6506 87.6023C45.2906 87.6023 42.5577 84.6368 42.5577 80.9909C42.5577 77.3449 45.2906 74.3794 48.6506 74.3794C52.0106 74.3794 54.7436 77.3449 54.7436 80.9909C54.7436 84.6368 52.0106 87.6023 48.6506 87.6023ZM48.6506 77.2718C46.761 77.2718 45.2233 78.9402 45.2233 80.9909C45.2233 83.0416 46.7608 84.7099 48.6506 84.7099C50.5405 84.7099 52.078 83.0416 52.078 80.9909C52.078 78.9402 50.5405 77.2718 48.6506 77.2718Z"/>
                  <path d="M80.0659 89.6689H66.7376C66.0018 89.6689 65.4048 89.0211 65.4048 88.2227C65.4048 87.4243 66.0019 86.7764 66.7376 86.7764H80.0659C80.8017 86.7764 81.3987 87.4243 81.3987 88.2227C81.3987 89.0211 80.8016 89.6689 80.0659 89.6689Z"/>
                </symbol><symbol id="icon-search" viewBox="0 0 16 17">
<path d="M12.4439 12.0126L15.8698 15.3658C16.0434 15.5357 16.0434 15.8111 15.8698 15.981C15.6963 16.1509 15.4149 16.1509 15.2413 15.981L11.8154 12.6278C10.5617 13.7111 8.91485 14.3684 7.11111 14.3684C3.18375 14.3684 0 11.2522 0 7.40822C0 3.56423 3.18375 0.448059 7.11111 0.448059C11.0385 0.448059 14.2222 3.56423 14.2222 7.40822C14.2222 9.17367 13.5507 10.7856 12.4439 12.0126ZM7.11111 13.4984C10.5475 13.4984 13.3333 10.7717 13.3333 7.40822C13.3333 4.04473 10.5475 1.31808 7.11111 1.31808C3.67467 1.31808 0.888889 4.04473 0.888889 7.40822C0.888889 10.7717 3.67467 13.4984 7.11111 13.4984Z"/>
</symbol><symbol id="icon-shopping-bag" viewBox="0 0 15 17">
<path d="M14.0493 14.6919L13.4942 4.84063H10.7214V4.04532C10.7214 2.0617 9.07272 0.448059 7.04616 0.448059C5.0196 0.448059 3.37096 2.06178 3.37096 4.04532V4.84063H0.478081L0.000561102 14.7345L7.77038e-05 14.7516C-0.0038423 15.1076 0.140719 15.4571 0.396479 15.7099C0.652319 15.9631 1.00776 16.1084 1.37168 16.1084H12.6798C13.0548 16.1084 13.418 15.9555 13.676 15.6887C13.9339 15.4219 14.07 15.0586 14.0493 14.6919ZM4.32952 4.04532C4.32952 2.57912 5.54816 1.38627 7.04616 1.38627C8.54408 1.38627 9.7628 2.57912 9.7628 4.04532V4.84063H4.32944V4.04532H4.32952ZM12.9798 15.0437C12.9019 15.124 12.7926 15.1701 12.6797 15.1701H1.3716C1.262 15.1701 1.15504 15.1264 1.07784 15.05C1.00248 14.9756 0.959201 14.8733 0.958481 14.7684L1.39232 5.77884H3.3708V6.96692C3.3708 7.22602 3.58536 7.43602 3.85008 7.43602C4.1148 7.43602 4.32936 7.22602 4.32936 6.96692V5.77884H9.76272V6.96692C9.76272 7.22602 9.97728 7.43602 10.242 7.43602C10.5067 7.43602 10.7212 7.22602 10.7212 6.96692V5.77884H12.5869L13.0919 14.7436C13.0984 14.854 13.0574 14.9634 12.9798 15.0437Z"/>
</symbol><symbol id="oils" viewBox="0 0 80 100">
                  <path d="M21.8258 50.1709H52.6501V66.8946H55.7325V40.1366C55.7304 38.3627 55.0803 36.6627 53.925 35.4085C52.7691 34.1549 51.2024 33.4494 49.5677 33.4471H48.0264V30.1024H49.5677C49.9764 30.1024 50.3685 29.9262 50.6575 29.6126C50.9465 29.299 51.1089 28.8735 51.1089 28.43V18.3958C51.1089 17.9523 50.9465 17.5267 50.6575 17.2132C50.3685 16.8996 49.9764 16.7234 49.5677 16.7234H43.4028V6.68915C43.4028 4.29928 42.2276 2.0908 40.3204 0.89567C38.4132 -0.298882 36.0628 -0.298882 34.1555 0.89567C32.2483 2.09097 31.0731 4.29947 31.0731 6.68915V16.7234H24.9083C24.0572 16.7234 23.367 17.4722 23.367 18.3958V28.43C23.367 28.8735 23.5294 29.299 23.8184 29.6126C24.1074 29.9262 24.4996 30.1024 24.9083 30.1024H26.4495V33.4471H24.9083C23.2735 33.4494 21.7068 34.1549 20.5509 35.4085C19.3957 36.6628 18.7455 38.3628 18.7434 40.1366V81.9459H21.8258V50.1709ZM34.1555 6.68915C34.1555 5.49386 34.7431 4.38969 35.6967 3.79241C36.6504 3.19514 37.8256 3.19514 38.7792 3.79241C39.7328 4.38969 40.3204 5.49389 40.3204 6.68915V16.7234H34.1555V6.68915ZM26.4495 20.0681H48.0264V26.7576H26.4495V20.0681ZM29.5319 30.1024H44.944V33.4471H29.5319V30.1024ZM24.9083 36.7919H49.5677C50.3851 36.7926 51.168 37.1458 51.746 37.7729C52.3239 38.4 52.6494 39.2497 52.65 40.1366V46.8261H21.8258V40.1366C21.8265 39.2496 22.1519 38.4 22.7299 37.7729C23.3078 37.1458 24.0909 36.7926 24.9083 36.7919Z"/>
                  <path d="M79.6962 80.1262C79.4052 78.3807 78.488 76.8323 77.1457 75.8199C75.804 74.8082 74.1466 74.4148 72.5372 74.7269L63.4365 76.5038L62.3453 69.9203H62.3446C62.2723 69.4836 62.0432 69.0961 61.7075 68.843C61.3717 68.5899 60.9575 68.4914 60.555 68.5697L51.4536 70.3467C51.0517 70.425 50.694 70.6744 50.4607 71.0387C50.2275 71.4023 50.1373 71.8525 50.2096 72.2893L50.482 73.9348L45.9313 74.8232H45.932C45.094 74.9867 44.5373 75.8565 44.688 76.7651L45.2426 80.1099L4.48236 89.599C2.94803 89.9559 1.67717 91.1153 1.08887 92.6943C0.50129 94.2734 0.673975 96.0652 1.54917 97.4784C2.42437 98.8916 3.88847 99.7414 5.45787 99.7473C5.69111 99.7473 5.92435 99.7287 6.15553 99.6921L47.4089 93.1698L47.9635 96.5161H47.9628C48.0357 96.9521 48.2649 97.3396 48.6006 97.5927C48.9364 97.8458 49.3506 97.9443 49.7531 97.866L54.3038 96.9775L54.5763 98.623C54.6485 99.0598 54.8776 99.4472 55.2134 99.7003C55.5492 99.9534 55.9641 100.052 56.3666 99.9729L65.4673 98.1959C66.3053 98.0324 66.862 97.1634 66.7113 96.2541L65.6201 89.6707L74.7215 87.8938C76.3301 87.5795 77.7585 86.5842 78.6915 85.1276C79.6245 83.671 79.9864 81.8717 79.6967 80.1254L79.6962 80.1262ZM5.71096 96.3826C4.83233 96.5215 4.01013 95.8802 3.85322 94.932C3.69566 93.9838 4.25986 93.0715 5.12817 92.8699L45.7898 83.4047L46.8631 89.8768L5.71096 96.3826ZM50.7249 94.2779L47.9962 77.8185L51.0298 77.2264L53.7586 93.6858L50.7249 94.2779ZM57.3384 96.3855L53.5178 73.343L59.5863 72.159L63.4064 95.2014L57.3384 96.3855ZM76.1606 83.2192C75.6962 83.9494 74.9813 84.4474 74.1762 84.6019L65.0748 86.3788L63.9835 79.7954L73.0843 78.0185H73.085C73.8893 77.8617 74.7184 78.0581 75.3892 78.5643C76.06 79.0705 76.519 79.8454 76.6635 80.7189C76.8079 81.5916 76.627 82.4913 76.1605 83.2192L76.1606 83.2192Z"/>
                  <path d="M37.238 55.1878C36.7812 55.1878 36.3477 55.408 36.0553 55.7881C34.9654 57.2044 29.532 64.4731 29.532 68.5667C29.532 71.5539 31.001 74.3147 33.385 75.808C35.7691 77.3019 38.7071 77.3019 41.0911 75.808C43.4751 74.3148 44.9441 71.5539 44.9441 68.5667C44.9441 64.4731 39.5113 57.2043 38.4208 55.7881C38.1284 55.408 37.695 55.1878 37.2381 55.1878H37.238ZM41.8617 68.5668C41.8617 70.3594 40.9803 72.0153 39.5499 72.9119C38.1194 73.8078 36.3566 73.8078 34.9262 72.9119C33.4958 72.0152 32.6144 70.3594 32.6144 68.5668C32.6144 66.772 35.0335 62.6642 37.238 59.5411C39.4426 62.6642 41.8617 66.7719 41.8617 68.5668Z"/>
                  <path d="M46.4855 53.5154H49.5679V56.8601H46.4855V53.5154Z"/>
                </symbol><symbol id="logo" viewBox="0 0 24 24"><g fill="none">
<g clip-path="url(#clip0_106_34625)">
<path fill-rule="evenodd" clip-rule="evenodd" d="M17.262 10.0581L12.4513 18.8401C14.3523 22.2078 15.9036 23.3903 18.9512 23.27C21.9358 23.1521 25.3719 19.0921 23.4369 15.6179L18.619 7.0753C18.4467 7.65027 17.4396 9.68844 17.262 10.0581ZM10.1434 20.6543C4.8786 27.3598 -2.71675 19.959 0.977333 14.1981C0.977333 14.1981 4.90991 7.3063 6.43925 4.62135C7.62519 2.53926 8.95382 1.22901 10.6813 0.809006C12.7879 0.29685 15.2547 1.4106 16.5697 3.44183C17.4837 4.85338 18.2925 6.1454 16.8671 8.5858C16.6977 8.87568 10.4768 20.2297 10.1434 20.6543ZM10.5191 8.2514C9.08019 7.4219 9.08019 5.33685 10.5191 4.50735C11.9579 3.67785 13.7662 4.72035 13.7662 6.37935C13.7662 8.03835 11.9579 9.0809 10.5191 8.2514Z" fill="#5FD788"/>
</g>

</g></symbol></svg>