<svg viewBox="0 0 259 290" xmlns="http://www.w3.org/2000/svg" data-speed=".04"><path d="M225.254 281.57c4.218-17.704 7.593-35.407 6.749-53.111-.843-11.802-3.374-32.878-17.716-35.407-1.688 0-3.375.843-3.375 2.529 0 15.175.844 29.506 2.531 44.681l2.531 20.232c.844 4.215 1.687 7.587 2.531 10.959.843 3.373.843 6.745 2.531 9.274 0 .843.843.843 1.687 0 .844-3.372 0-6.745-.844-10.117 0-3.372-.843-6.744-.843-10.116-.844-7.587-1.688-15.174-2.531-21.918-1.687-14.332-1.687-29.506-1.687-43.838-.844.843-2.531 1.686-3.375 2.529 6.749 1.686 9.28 7.588 10.967 13.489 1.688 7.587 2.531 15.174 3.375 22.761.844 15.175-2.531 31.192-4.218 46.367-1.688 3.372.843 4.215 1.687 1.686Z"/><path d="M225.254 282.413c21.935-21.919 34.59-51.425 33.746-82.617 0-2.529-3.375-4.215-5.062-1.686-5.905 6.745-10.967 14.332-15.186 21.919-2.531 4.215-4.218 8.43-5.905 12.645-1.687 3.372-3.375 6.745-2.531 10.117 0 .843 1.687 1.686 2.531.843 2.531-2.529 3.374-6.745 5.062-9.274 1.687-4.215 4.218-7.587 5.905-11.802 4.219-7.587 9.28-14.331 15.186-20.232-1.687-.844-3.375-1.687-5.062-1.687 1.687 29.506-9.28 59.012-29.528 80.931-2.531 0 0 1.686.844.843Z"/><path d="M218.505 258.808c-2.531-12.645-12.655-20.232-22.779-25.291-11.811-5.901-25.309-11.802-37.964-10.959-2.531 0-3.374 2.529-2.531 4.215 6.749 13.489 15.186 25.291 26.997 35.407 5.062 5.058 10.967 9.273 17.717 12.646 5.905 3.372 13.498 7.587 21.091 9.273 2.531 0 4.218-2.529 1.687-4.215-5.905-3.372-12.655-5.902-18.56-9.274-5.906-3.372-11.811-7.587-17.717-12.645-10.967-9.273-20.247-21.076-25.309-33.721-.844 1.686-1.688 2.529-2.531 4.215 11.811 0 23.622 5.901 34.589 10.96 10.124 4.215 19.404 10.959 24.466 21.075-.843 0 .844-.843.844-1.686Z"/><path d="M192.352 268.924c-5.062-2.529-11.811-3.372-16.873-4.215-5.906-.843-10.968-1.686-16.873-1.686-11.811-.843-23.622 0-35.433 1.686-2.531 0-2.531 4.215-.844 5.058 12.655 5.902 25.309 12.646 39.651 16.018 6.75 1.686 14.342 2.529 21.092 3.372 7.592.843 15.185 2.529 22.778 0 2.531-.843 2.531-4.215 0-5.058-6.749-2.529-14.342-1.686-21.091-1.686-6.749-.843-13.498-.843-21.091-2.529-13.499-2.529-25.31-8.431-37.964-14.332-.844 1.686-.844 3.372-1.688 5.058 10.968-1.686 22.779-2.529 33.746-2.529 5.906 0 11.811.843 16.873.843 5.062.843 11.811 2.529 16.873 1.686 1.687 0 2.531-1.686.844-1.686ZM176.322 201.482c-6.749-10.116-12.654-20.232-13.498-32.034-1.687-11.803-2.531-24.448.844-36.25-.844 0-2.531 0-3.375.843 6.749 10.959 10.124 23.604 12.655 35.407.843 5.901 1.687 12.645 2.531 19.389 0 5.058-1.688 11.802.843 16.861 0 .843 1.688.843 1.688 0 3.374-4.216 2.531-12.646 2.531-17.704 0-6.744-.844-12.645-2.531-19.389-2.531-12.646-7.593-25.291-14.342-36.25-.844-1.686-2.531-.843-3.375.843-4.218 12.645-3.374 26.133-1.687 38.779 1.687 12.645 7.593 21.918 15.185 32.035 1.688 0 3.375-.843 2.531-2.53Z"/><path d="M180.541 194.738c.843-23.604 8.436-46.366 21.091-65.756-1.687 0-3.375-.843-4.218-.843 1.687 14.332 1.687 30.349-2.531 43.838-1.688 5.901-4.219 11.802-7.593 16.86-3.375 5.901-8.437 9.273-12.655 14.332-1.687 1.686.844 5.058 2.531 4.215 5.062-3.372 10.124-8.431 13.498-13.489 3.375-5.901 6.75-11.802 8.437-17.703 5.062-15.175 5.062-31.192 3.375-47.21 0-2.529-3.375-3.372-4.219-.843-13.498 20.233-20.247 43.838-19.404 68.285-.843 0 1.688 0 1.688-1.686Z"/><path d="M175.479 204.855c-6.749 0-12.655-1.686-18.56-4.216-5.906-2.529-10.968-6.744-16.03-10.959-9.28-8.43-20.247-16.86-26.997-27.82-.843.843-.843 1.686-1.687 3.373 16.873 0 33.746 5.058 48.932 12.645 0 0 .843 0 0-.843l-10.124-7.587c-3.375-2.529-7.593-4.215-11.811-5.059-8.437-2.529-17.717-3.372-26.997-3.372-1.687 0-2.531 1.686-1.687 3.372 8.436 11.803 18.56 21.919 29.528 31.192 10.123 8.431 23.622 17.704 37.12 11.803 0-.843 0-2.529-1.687-2.529Z"/><path d="M177.166 203.169c-5.905 4.215-10.124 8.43-16.873 10.116-8.436 2.529-16.873 1.686-25.309.843-15.186-2.529-29.528-5.901-43.026-15.175v5.059c6.749-3.373 14.342-5.902 21.934-7.588 7.593-1.686 15.186-1.686 22.779-1.686 2.531 0 3.375-4.215.844-4.215-16.03-2.529-32.903 2.529-48.088 8.43-1.688.843-3.375 3.373-.844 5.059 13.498 10.959 31.215 15.174 48.088 16.86 8.436.843 17.717.843 26.153-2.529 5.906-2.529 13.498-6.744 16.029-13.488.844-.843-.843-2.529-1.687-1.686Z"/><path d="M174.635 206.541c2.531 5.058 5.906 10.959 9.28 16.017l5.062 7.587c.844 1.686 1.687 2.529 3.375 3.372.843.843 1.687 2.529 3.374 3.372.844 0 1.688 0 1.688-.843 0-1.686-.844-2.529-1.688-4.215-.843-1.686-.843-2.529-1.687-4.215l-5.062-7.587c-3.374-5.058-6.749-10.116-10.967-15.174-1.688-1.686-4.219 0-3.375 1.686ZM160.293 174.506c.844-1.686-.844-3.372-1.687-4.215-.844-1.686-1.687-3.372-3.375-4.215-2.531-3.373-4.218-5.902-6.749-9.274-2.531-2.529-4.218-5.901-6.749-8.43-.844-1.686-2.531-3.372-3.375-4.215-.843-1.686-1.687-3.372-4.218-4.215-1.687 0-2.531.843-2.531 2.529s1.687 3.372 2.531 5.058c.844 1.686 2.531 3.372 3.375 4.215 2.531 3.372 4.218 5.901 6.749 9.273 2.531 2.529 4.218 5.902 6.749 8.431.844 1.686 2.531 2.529 3.375 4.215.843.843 1.687 3.372 4.218 2.529.843-.843 1.687-.843 1.687-1.686Z"/><path d="M140.046 145.843c7.592-12.645 10.967-27.82 11.811-42.994.843-13.489.843-29.506-7.593-40.465-.844-1.686-3.375-1.686-4.218.843-2.531 14.331-5.062 28.663-6.75 42.994-.843 7.587-.843 14.331-1.687 21.918 0 5.059-1.687 13.489 1.687 18.547 0 .843 1.688.843 1.688 0 3.374-4.215 1.687-12.645 1.687-18.547 0-6.744.844-13.488.844-20.232.843-14.331 2.531-28.663 5.905-42.994-1.687 0-2.531 0-4.218.843 7.593 10.96 7.593 26.133 5.905 38.779-.843 14.331-5.061 27.82-9.28 41.308 1.688 0 3.375.843 4.219 0Z"/><path d="M136.671 140.785c0-26.134-9.28-52.268-24.466-73.343-.843-1.686-4.218-1.686-4.218.843.844 15.174 1.687 32.035 5.905 46.366 1.688 5.901 5.062 11.802 8.437 16.861 1.687 2.529 3.375 5.058 5.062 6.744 2.531 2.529 4.218 5.901 7.593 7.587.843.843 3.374-.843 2.531-1.686-2.531-5.901-7.593-10.116-10.968-15.174-3.374-5.059-6.749-10.117-8.436-16.018-4.219-14.331-5.062-30.349-5.906-44.68-1.687 0-2.531.843-4.218.843 14.342 21.918 22.778 45.523 26.153 71.657 0 1.686 1.687.843 2.531 0Z"/><path d="M134.14 143.314c-7.593.843-15.186 2.529-22.778 3.372-7.593.843-14.343-1.686-21.092-2.529H79.303c-4.218 0-8.437-1.686-11.811-3.372-6.75-3.372-14.342-6.744-21.091-10.116-.844 1.686-.844 3.372-1.688 5.058 15.186-1.686 31.215-2.529 46.401-2.529 7.593 0 15.186.843 21.935 2.529 7.593 2.529 13.498 5.901 20.247 10.116 3.375 1.686 5.906-2.529 2.531-4.215-5.905-4.215-12.654-7.587-19.404-10.116-6.749-2.529-15.185-3.373-22.778-4.216-16.873 0-33.746 1.687-49.775 2.53-2.531 0-4.219 3.372-1.688 5.058 8.437 4.215 16.03 8.43 24.466 11.802 7.593 3.372 14.342 3.372 22.779 3.372 7.592.843 14.342 2.529 21.935 1.686 8.436-.843 16.029-3.372 24.465-5.901.844 0 0-2.529-1.687-2.529Z"/><path d="M95.332 129.826c-8.436-.844-15.185-5.902-21.935-10.96-6.749-5.058-13.498-10.116-19.404-16.017-.843 1.686-1.687 3.372-1.687 4.215 16.03 1.686 31.215 5.901 45.557 11.802 5.906 2.529 11.811 5.058 16.873 8.43 2.531 1.687 4.218 3.373 6.749 5.059 1.688.843 3.375 2.529 4.219 4.215.843.843 1.687 0 1.687-.843.843-4.215-5.062-8.431-8.437-10.96-5.062-4.215-11.811-7.587-17.716-10.116-16.03-6.744-32.059-11.802-48.932-13.488-2.53 0-3.374 3.372-1.687 4.215 6.749 6.744 14.342 12.645 21.935 18.546 6.749 5.059 15.185 10.117 23.622 8.431 1.687 0 .843-2.529-.844-2.529Z"/><path d="M119.798 123.081c-5.906-9.273-11.811-18.546-18.56-27.82-2.531-3.371-5.062-7.587-8.437-10.959-2.53-2.529-6.749-7.587-10.967-7.587-.844 0-1.688.843-.844 1.686.844 1.686 2.531 3.372 4.218 4.215 1.688 1.686 3.375 3.372 5.062 4.215 3.375 3.372 5.906 7.587 8.437 10.96 5.905 8.43 12.654 16.86 19.404 25.29.843 2.529 2.531.843 1.687 0Z"/><path d="M84.365 80.93c-3.375-12.645-5.062-24.448-5.906-37.093-.843-12.645-.843-25.29 1.688-37.936h-1.688c2.531 5.901 5.906 11.802 7.593 18.547 1.687 6.744 4.218 12.645 5.062 19.39.844 6.743.844 13.487.844 20.232 0 3.372-.844 7.587-1.688 10.959-.843 2.53-1.687 5.058-.843 8.43 0 .843.843.843 1.687 0 2.53-1.686 2.53-5.058 3.374-8.43.844-3.372.844-6.744 1.688-10.116.843-7.587 0-14.332-.844-21.919-2.53-12.645-6.749-27.82-16.03-37.936-.843-.843-1.686 0-1.686 0-2.531 12.645-5.062 25.29-4.219 37.936.844 12.645 3.375 25.29 7.593 37.936 1.688 2.53 4.218 1.686 3.375 0Z"/><path d="M86.052 81.773c-27.84 4.215-57.368-3.372-79.303-22.761 0 1.686-.844 2.529-1.687 4.215 12.655-.843 25.31-.843 37.12.843 12.655 1.686 24.466 5.058 36.277 10.116 3.375 1.686 5.062-1.686 2.531-3.372-10.124-7.587-23.622-10.116-35.433-11.802-13.498-1.687-26.997-1.687-40.495-.843-2.531 0-3.375 2.529-1.687 4.215 21.934 21.075 54.837 31.192 83.52 21.918 2.532-.843 1.688-3.372-.843-2.529Z"/><path d="M67.492 64.07c-10.124-5.058-16.03-14.332-22.779-22.762-6.749-9.273-12.654-19.39-18.56-29.506-.844.843-.844 1.686-1.687 2.53 10.967 3.371 21.935 9.273 32.058 16.017 4.219 2.529 8.437 5.901 11.811 9.273 1.688 1.686 3.375 4.215 5.062 5.901 0 1.686.844 4.215 2.531 5.901.844.843 2.531 0 2.531-.843.844-4.215-4.218-9.273-6.749-12.645-3.375-4.215-7.593-7.587-12.655-10.116-10.123-6.744-21.934-11.803-33.746-16.86-1.687 0-2.53 1.685-1.687 2.528 5.062 10.96 11.811 21.919 18.56 32.035 5.906 8.43 13.499 18.547 24.466 20.233.844 0 1.687-.843.844-1.686Z"/></svg>