<svg viewBox="0 0 157 218" xmlns="http://www.w3.org/2000/svg" data-speed=".02"><path d="M1.09 217.728C26.984 167.17 63.781 123.95 102.486 82.633c5.451-5.708 10.903-11.416 16.354-17.396 2.726-2.718 5.179-5.437 7.905-8.155 2.725-2.718 5.451-5.436 7.632-8.426.272-.272-.273-.544-.545-.544-5.452 3.806-9.813 9.514-14.447 14.135-4.906 5.164-10.085 10.329-14.991 15.494-9.813 10.329-19.625 20.93-28.892 31.531-18.535 21.202-35.98 43.219-51.516 66.324-8.722 13.319-16.9 27.182-23.986 41.317-.273.815.818 1.631 1.09.815Z"/><path d="M97.307 85.623c10.903-11.96 20.443-25.823 29.165-39.685 8.45-13.863 15.537-28.542 19.353-44.579 0-.544-.546-1.36-1.363-1.087-7.087 2.718-11.448 9.513-16.082 15.493-5.451 7.34-10.903 14.679-15.536 22.562-8.995 14.678-16.9 31.259-19.08 48.384 0 .815 1.363 1.087 1.635.272 3.816-16.582 9.54-31.532 18.262-46.21 4.089-7.067 8.723-13.591 13.629-20.387 4.634-6.523 9.812-15.221 17.717-18.211l-1.09-1.088c-4.089 15.766-10.903 30.716-19.353 44.579-8.449 13.863-18.807 26.366-27.53 39.957-.272 0 0 .272.273 0ZM95.127 91.603c19.625-9.241 39.522-16.309 61.055-19.299l-1.09-1.087c.273 2.446-5.451 4.62-7.359 5.708-2.454 1.36-4.907 2.447-7.36 3.534-5.179 2.174-10.357 4.077-15.536 5.436-11.176 2.99-22.624 3.806-34.071 5.98-1.09.272-.818 2.175.272 2.175 6.542-.816 13.083-2.175 19.353-3.262 6.541-1.087 13.083-2.446 19.352-4.35 5.724-1.63 11.175-4.076 16.354-6.795 2.726-1.359 5.452-2.99 8.177-4.62 1.636-1.088 2.999-2.175 2.726-4.078 0-.544-.545-1.087-1.09-1.087-21.261 2.718-43.066 8.97-61.601 20.386-.273.816 0 1.631.818 1.36ZM66.234 122.047c6.542-16.309 10.903-33.434 13.084-50.83a213.99 213.99 0 0 0 1.635-26.367c0-7.61.273-16.037-3.27-23.104-.546-.816-1.636-.544-1.909.271-11.993 32.619-16.627 67.14-13.083 101.661 0 1.088 2.18 1.359 1.908 0-3.27-34.25.818-69.042 13.083-101.117-.545 0-1.363.272-1.908.272 3.816 7.339 2.998 17.125 2.998 25.28 0 8.154-.817 16.308-1.635 24.463-2.18 16.853-6.269 33.434-11.993 49.199-.273.816.818.816 1.09.272ZM30.255 167.441c5.997-13.319 9.54-27.182 11.448-41.588 1.09-7.339 1.363-14.678 1.363-22.018 0-6.795-.273-13.59-2.998-19.842-.273-.272-.818-.544-1.09-.544-1.909.544-2.454 1.903-2.999 3.805-1.09 3.534-1.635 7.34-2.18 10.873a292.349 292.349 0 0 0-3.271 22.289c-1.636 15.222-2.18 30.716-1.908 46.21 0 1.359 1.908 1.359 1.908 0-.545-13.591 0-26.91 1.363-40.501.545-6.796 1.635-13.591 2.725-20.387.545-3.534 1.09-6.795 1.908-10.33.273-1.902.818-8.97 2.998-9.785-.545-.271-.817-.543-1.362-.815 2.725 6.524 2.725 13.32 2.725 20.386 0 7.068-.545 13.863-1.362 20.659-1.909 14.134-5.452 27.997-10.086 41.317 0 .543.546.815.818.271ZM9.54 202.234c9.812-3.533 19.352-8.154 29.165-12.232 9.812-4.077 19.625-8.154 29.437-11.96 9.813-3.805 19.625-7.611 29.71-11.416 4.634-1.903 9.54-3.534 14.174-5.437 4.634-1.63 10.085-3.261 14.174-5.98.545-.271.272-.815-.273-.815-5.179.815-10.085 3.262-14.991 4.893-4.907 1.902-9.813 3.805-14.992 5.708-9.812 3.805-19.897 7.611-29.71 11.416-9.812 3.806-19.625 7.883-29.437 11.961-9.267 3.805-19.08 7.61-27.802 12.775-.273.544 0 1.359.545 1.087Z"/><path d="M79.318 172.062c8.722-10.601 17.444-21.202 27.802-30.444 10.357-9.513 21.805-17.668 34.071-24.463-.545-.272-1.09-.816-1.635-1.088-5.179 12.232-13.629 22.561-23.441 31.26-10.086 8.698-21.806 14.678-33.254 21.202-.545.271-.273 1.359.545 1.087 12.538-4.621 24.531-12.504 34.617-21.202 10.085-8.698 18.534-19.299 23.713-31.803.273-.816-.818-1.631-1.635-1.087-11.993 6.795-23.441 15.222-33.799 24.463-10.358 9.242-20.17 19.843-27.53 31.532-.545.543.273 1.087.546.543ZM52.333 185.11c14.447-3.262 28.62-5.709 43.339-4.621 12.811.815 25.621 3.805 35.434 12.503.272-.543.272-1.359.545-1.902-14.991 2.174-30.528 2.99-45.792 2.446a301.228 301.228 0 0 1-22.078-1.631c-4.088-.543-7.904-1.087-11.993-1.631-3.543-.543-7.087-1.631-10.63-1.359-.545 0-.818.816-.273 1.087 2.999 1.631 6.815 2.175 10.085 2.719l10.63 1.631c7.633 1.087 15.537 1.63 23.442 1.902 15.809.544 31.345-.543 46.882-2.446.817 0 1.635-1.087.817-1.903-9.267-8.97-22.35-12.232-34.889-13.047-15.264-1.087-31.618.272-45.791 5.708-.818-.272-.545.544.272.544Z"/></svg>