<svg viewBox="0 0 200 227" xmlns="http://www.w3.org/2000/svg" data-speed=".01"><path d="M1.79 182.943c4.452-4.999 8.55-10.33 13.002-15.328 4.66-4.936 9.258-9.665 14.272-14.268 10.029-9.206 20.494-17.603 31.521-25.604 21.91-16.272 44.464-31.67 68.1-45.387 6.554-3.688 13.109-7.375 19.809-10.793 6.7-3.418 14.253-5.9 20.37-10.398.874-.642.083-1.785-.874-1.62-6.701 1.154-12.839 4.967-18.935 7.887a459.112 459.112 0 0 0-18.123 9.715c-12.297 6.94-24.095 14.484-35.538 22.36-22.222 15.047-44.422 30.778-64.416 48.984-5.618 5.101-11.152 10.679-16.415 16.113C9.507 170.1 4.389 175.803.52 181.882c-.458.768.604 1.766 1.27 1.061Z"/><path d="M142.355 73.113c10.674-8.334 21.389-17.56 27.192-30.073.832-2.013 2.662-5.084 1.496-7.245-1.166-2.16-3.829-1.604-5.577-.318-2.621 1.927-4.931 5.08-7.053 7.611-2.184 2.738-4.431 5.684-6.615 8.422-2.372 3.36-4.535 6.784-6.699 10.207-1.83 3.07-4.805 6.93-4.492 10.418-.062.207.499.602.77.457 2.83-1.865 4.077-6.016 5.845-8.879 1.893-3.278 3.932-6.286 5.971-9.295 2.309-3.153 4.681-6.514 7.198-9.604 1.394-1.618 2.517-3.09 3.849-4.501.603-.498 4.244-5.061 4.452-2.735.25 1.433-1.456 4.088-2.038 5.271-.707 1.598-1.622 3.133-2.475 4.461-1.893 3.279-4.14 6.224-6.803 9.045-4.847 5.558-10.465 10.659-16.02 15.552-.52.975.333 1.91.999 1.206Z"/><path d="M141.294 74.378c3.059-1.117 6.555-1.424 9.967-2.21 3.351-.577 6.701-1.154 9.989-1.523 6.305-.595 13.026-1.064 19.186.335 2.976.668 9.47 3.978 4.185 6.463a11.859 11.859 0 0 1-5.744.99c-3.579-.172-7.512-.675-11.175-1.323-4.349-.628-8.907-1.32-13.256-1.947-2.143-.418-4.287-.836-6.639-1.317-1.727-.293-3.184-.73-4.744-.068-.541.29-.52.975-.166 1.308 1.144 1.476 3.142 1.623 5.078 1.979 2.351.48 4.703.96 7.117 1.234 4.349.628 8.907 1.319 13.256 1.947 6.139.714 13.131 2.363 18.812-.682 1.893-1.015 3.412-3.048 2.995-5.437-.479-2.18-2.456-3.906-4.475-4.74-5.515-2.788-12.445-2.382-18.355-2.348a56.882 56.882 0 0 0-12.735 1.604c-2.185.475-4.64 1.095-6.679 1.84-2.248.682-4.203 1.905-6.513 2.795-1.02.372-.853 1.328-.104 1.1ZM121.007 85.254c6.097-2.92 10.257-8.46 13.731-13.978 3.537-5.726 6.095-11.973 7.821-18.47.811-2.698 2.017-5.956.976-8.532-.75-2.036-2.998-3.617-5.307-2.727-2.58 1.035-4.057 4.439-5.43 6.742-1.831 3.07-3.515 6.411-4.93 9.607a121.815 121.815 0 0 0-4.242 11.85c-1.186 3.944-2.558 8.51-2.432 12.622.104 1.163 1.769 1.663 2.143.418 1.331-3.674 1.622-7.66 2.745-11.396a105.223 105.223 0 0 1 3.993-11.02c1.476-3.404 3.224-6.952 5.116-10.23.916-1.536 1.893-3.279 3.017-4.752.728-.912 1.664-1.762 2.601-.35.645.874.271 2.119.021 2.95-1.517 6.559-4.263 13.428-7.383 19.28-3.515 6.41-8.238 11.554-13.023 16.905-.603.498-.166 1.308.583 1.08Z"/><path d="M123.4 84.841c2.622.336 5.369.256 7.845.322 2.955-.018 6.119.028 9.073.01 6.119.03 12.237.058 18.313.979 1.728.293 12.008 1.572 10.802 4.83-.832 2.013-4.515 2.943-6.43 3.273-4.037.597-8.365.654-12.444-.12-4.558-.69-9.136-2.066-13.59-3.858-2.435-.958-4.599-2.06-7.034-3.019-2.165-1.103-4.475-2.476-6.764-3.164-1.665-.5-2.559 1.72-1.227 2.573 2.04 1.518 4.475 2.476 6.701 3.372 2.165 1.103 4.6 2.061 7.035 3.02 4.453 1.79 9.032 3.166 13.797 3.92 6.701 1.109 15.65 1.535 20.934-3.213 1.873-1.7 2.767-3.921 1.123-6-1.353-1.538-3.58-2.433-5.661-3.059-6.036-1.814-12.716-2.237-19.042-2.328-4.266-.15-8.386-.031-12.569.296-3.433.1-7.554.219-11.029 1.211-.416-.125-.728.913.167.955ZM100.138 99.575c11.839-8.436 18.349-22.547 22.404-36.038.936-3.113 1.664-6.29 1.08-9.633-.417-2.388-1.791-4.612-4.496-3.162-2.704 1.45-4.576 5.414-6.282 8.07-1.893 3.278-3.37 6.681-4.847 10.085-1.851 4.648-3.639 9.09-5.282 13.8-1.643 4.712-3.556 9.568-4.367 14.53-.166 1.307 1.436 2.016 2.081.625 1.789-4.441 2.953-9.07 4.471-13.366 1.456-4.089 2.912-8.177 4.576-12.203 1.663-4.026 3.39-8.26 5.678-12.098.978-1.743 2.226-3.631 3.62-5.249.395-.56 1.102-2.158 2.08-1.638.625.188.292 2.804.376 3.282-.02 3.84-1.622 7.66-2.953 11.333-1.393 3.88-2.932 7.492-4.742 11.248-3.494 7.096-8.237 13.818-14.188 19.271-.395.56.188 1.641.791 1.143Z"/><path d="M100.096 98.205c6.826-1.57 13.485.432 20.082 2.641a102.589 102.589 0 0 1 10.843 3.938c1.811.77 3.413 1.478 5.161 2.456 1.395.646 3.975 1.874 4.704 3.224.645.873.021.686-.874.643-.895-.043-1.519-.23-2.414-.273-1.789-.085-3.725-.441-5.66-.796-3.933-.503-7.742-1.422-11.55-2.34-7.346-1.982-13.902-5.083-20.021-9.638-1.332-.853-2.788.972-1.727 1.97 10.469 9.71 25.932 11.867 39.458 13.67 2.206.21 5.244.671 5.993-1.82.811-2.698-2.477-4.592-4.371-5.84-6.306-3.932-13.32-6.266-20.396-8.393-6.243-1.876-13.527-4.065-19.956-.793-.541.29-.229 1.516.728 1.35ZM81.828 109.913c2.705-1.45 4.41-4.105 6.2-6.283a76.284 76.284 0 0 0 5.742-7.78c3.349-5.103 7.301-10.704 7.591-16.954.062-2.47-.5-5.129-1.874-7.352-1.29-1.746-3.226-2.101-4.89-.339-2.06 2.323-3.329 5.79-4.889 8.715-1.352 2.988-2.641 5.769-3.993 8.757-1.54 3.611-2.662 7.347-3.785 11.083-.562 1.868-1.186 3.944-1.539 5.874-.499 1.661-.998 3.321-.602 5.024.166.956 1.478 1.123 1.935.356 1.061-1.266 1.206-3.259 1.497-4.982.5-1.66.79-3.383 1.29-5.044 1.06-3.528 2.266-6.786 3.535-10.252 1.268-3.466 2.683-6.662 4.368-10.003.644-1.39 1.56-2.926 2.204-4.316.396-.56.957-2.428 1.498-2.718.063-.208.125-.415.333-.353.416.126.77.458.853.936 3.415 6.005-1.849 13.701-4.927 18.66-1.769 2.863-3.682 5.456-5.659 8.257-1.914 2.593-4.722 5.143-6.074 8.131-.125.416.645.873 1.186.583ZM76.065 114.744c3.517.378 7.346-.282 10.925-.111 3.85.026 7.575.466 11.446 1.177 3.454.586 6.846 1.379 10.114 2.587 1.664.501 3.059 1.146 4.661 1.854 1.395.645 3.913 2.081 4.642 3.432.562.395.645.873.187 1.64-.041.893-.374 1.246-1.269 1.203-.749.227-1.789-.085-2.476-.065-1.79-.086-3.725-.441-5.515-.526-3.933-.504-7.596-1.152-11.404-2.07a94.558 94.558 0 0 1-10.614-3.19c-3.683-1.334-7.45-3.145-11.072-4.686-1.394-.645-2.288 1.576-1.164 2.366 6.16 3.662 13.86 5.976 20.79 7.833 6.722 1.794 14.193 3.36 21.269 3.224 2.06-.06 4.578-.887 5.056-3.233.54-2.553-2.415-4.799-4.309-6.047-5.412-3.89-12.404-5.539-18.897-6.585-3.87-.711-7.866-1.007-11.716-1.032-3.642.037-7.7-.051-11.029 1.211-.832-.25-.25.83.375 1.018ZM49.079 133.564c3.495-2.571 6.2-6.284 8.696-10.06 2.705-3.713 5.055-7.759 7.406-11.805 4.576-7.677 9.215-15.561 10.524-24.446.52-3.239.58-7.973-1.293-10.799-1.582-2.286-3.892-1.396-5.556.367-5.846 6.616-8.237 16.082-10.94 24.321-1.83 5.334-3.66 10.668-5.428 15.794-.749 2.491-1.768 5.127-2.516 7.617-.687 2.284-2.122 4.794-1.435 7.037.146.271.562.396.833.251 1.81-1.493 2.142-4.109 2.974-6.122.749-2.491 1.643-4.711 2.392-7.202l5.303-15.379c1.58-4.504 2.953-9.07 4.741-13.511 1.02-2.636 2.247-5.209 3.62-7.512.457-.767.977-1.743 1.643-2.448.79-1.12 2.101-3.216 2.788-.972 2.978 9.72-3.637 20.406-8.276 28.29-2.413 4.253-5.096 8.652-7.717 12.843-2.621 4.191-6.012 7.924-8.425 12.178-1.061 1.265-.146 1.993.666 1.558ZM50.245 135.724c8.344-1.339 17.126-1.868 25.595-1.359 8.262.446 17.834 1.061 24.204 7.048-.021-.685.166-1.308.082-1.785-3.225 2.425-8.469 1.754-12.11 1.791-4.537-.006-9.011-.219-13.63-.702-4.62-.483-9.386-1.237-14.09-2.198-2.143-.418-4.495-.898-6.576-1.524-1.665-.5-3.33-1-5.244-.671-.479.083-.728.913-.374 1.246 1.623 1.393 3.767 1.811 5.91 2.229l7.68 1.629c4.91 1.023 9.739 1.569 14.837 1.97 5.099.401 10.26.594 15.545.372 3.642-.037 7.283-.074 10.238-2.354.603-.497.645-1.39.083-1.785-6.37-5.988-15.817-7.017-24.224-7.734-9.365-.551-18.688.268-27.823 2.727-1.165.103-.852 1.328-.103 1.1ZM28.898 152.392c5.991-6.346 10.506-13.816 13.625-21.93 1.456-4.089 2.704-8.24 3.264-12.371.458-3.031 1.31-6.622-1.708-8.661-.562-.395-1.519-.23-1.706.393-4.078 6.016-5.699 13.676-7.758 20.525l-3.368 11.208-1.747 5.812c-.437 1.453-1.144 3.051-.748 4.754.083.477.708.665 1.04.312 1.207-.995 1.498-2.718 1.997-4.378l1.497-4.982 3.37-11.208c2.058-6.849 3.534-14.779 7.819-20.733-.479.083-1.228.31-1.706.393 1.27 1.06.729 3.614.355 4.859-.291 1.723-.645 3.653-1.144 5.314-.852 3.591-2.12 7.057-3.327 10.315-2.745 6.869-6.885 13.093-11.587 18.922-.79 1.12.833 2.513 1.832 1.456Z"/><path d="M28.96 154.447c13.235-3.264 29.216-4.344 38.854 7.378l.749-2.49c-6.909 1.091-14.13.958-20.977-.421-3.454-.586-6.576-1.524-9.906-2.525-3.267-1.208-6.264-2.561-9.531-3.77-1.457-.438-2.29 1.575-1.165 2.366 5.827 4.014 13.652 5.914 20.77 7.147 7.117 1.234 14.4 1.16 21.517.131 1.165-.102 1.394-1.618.748-2.491-10.137-12.325-28.012-12.493-41.579-6.613-.811.435-.229 1.516.52 1.288Z"/></svg>